<?xml version="1.0" encoding="utf-8"?>
<!-- Generator: Adobe Illustrator 18.0.0, SVG Export Plug-In . SVG Version: 6.00 Build 0)  -->
<!DOCTYPE svg PUBLIC "-//W3C//DTD SVG 1.1//EN" "http://www.w3.org/Graphics/SVG/1.1/DTD/svg11.dtd">
<svg version="1.1" id="Слой_1" xmlns="http://www.w3.org/2000/svg" xmlns:xlink="http://www.w3.org/1999/xlink" x="0px" y="0px"
	 viewBox="0 0 2500 1000" enable-background="new 0 0 2500 1000" xml:space="preserve">
<g>
	<circle fill="#FCCB00" stroke="#FFFFFF" stroke-width="8" stroke-miterlimit="10" cx="186.1" cy="607.9" r="159.1"/>
	<circle fill="none" stroke="#00AAE5" stroke-width="8" stroke-miterlimit="10" cx="186.1" cy="607.9" r="171.4"/>
</g>
<g>
	<g>
		<path fill="#FFFFFF" d="M186.1,634.5l-23-20.2l-65.9,56.5c2.4,2.2,5.6,3.6,9.2,3.6h159.4c3.6,0,6.8-1.4,9.2-3.6l-65.8-56.5
			L186.1,634.5z"/>
		<path fill="#FFFFFF" d="M275,545c-2.4-2.2-5.6-3.6-9.2-3.6H106.4c-3.6,0-6.8,1.4-9.2,3.6l88.9,76.2L275,545z"/>
		<polygon fill="#FFFFFF" points="93,553.1 93,663.6 157.3,609 		"/>
		<polygon fill="#FFFFFF" points="214.9,609 279.2,663.6 279.2,553 		"/>
	</g>
</g>
<g>
	<circle fill="#FCCB00" stroke="#FFFFFF" stroke-width="8" stroke-miterlimit="10" cx="718.8" cy="437.7" r="159.1"/>
	<circle fill="none" stroke="#00AAE5" stroke-width="8" stroke-miterlimit="10" cx="718.8" cy="437.7" r="171.4"/>
</g>
<g id="Like_2">
	<path fill="#FFFFFF" d="M789.3,448c8.3,0.4,15.4-6.2,15.7-14.6c0.4-8.5-5.5-16.1-13.8-16.4l-55.2-6.9c0,0,11.5-19.2,11.5-47.7
		c0-19-13.6-21.6-21.6-21.6c-6.3,0-8,12.2-8,12.2h0c-1.4,7.8-3.3,14.6-9.7,27.2c-7.2,14.1-17,12.7-28.5,25.3
		c-2,2.2-4.7,5.8-7.4,10.3c-0.2,0.2-0.4,0.6-0.6,1c-0.2,0.6-0.5,0.9-0.8,1.5c-0.4,0.8-0.9,1.6-1.3,2.5c-7.1,7.1-18.1,6.4-22.8,6.4
		c-9.4,0-14.4,5.5-14.4,14.4l0,65.7c0,10,4.1,13.3,14.4,13.3h14.4c7.2,0,12.9,4.1,21.6,7.2c11.9,4.1,29.6,7.2,60.1,7.2
		c5.3,0,21.9,0,21.9,0c5.1,0,9.1-2.3,12.1-5.1c1.1-1.1,2.3-2.6,2.8-5.6c0.1-0.5,0.2-2.4,0.2-2.7c0.4-8.6-4.8-11.7-7.8-12.7
		c0.1,0,0-0.1,0.2-0.1l9.4,0.4c8.3,0.4,16.5-5.6,16.5-15.8c0-8.4-6.8-14.4-15.1-14.8l5,0.2c8.3,0.4,15.3-6.2,15.7-14.6
		C804.1,455.5,797.6,448.4,789.3,448z"/>
</g>
<g>
	<circle fill="#FCCB00" stroke="#FFFFFF" stroke-width="8" stroke-miterlimit="10" cx="1251.5" cy="607.9" r="159.1"/>
	<circle fill="none" stroke="#00AAE5" stroke-width="8" stroke-miterlimit="10" cx="1251.5" cy="607.9" r="171.4"/>
</g>
<g>
	<g id="Layer_5_58_">
		<g>
			<g>
				<path fill="#FFFFFF" d="M1304.4,566.9c-6.4-2.6-8.2-4.1-8.2-6.9c0-2.2,1.7-4.8,6.4-4.8c4.2,0,7.4,1.7,7.5,1.7
					c0.3,0.2,0.7,0.3,1.1,0.3c0.9,0,1.7-0.6,2.1-1.4l1.2-3c0.4-1.1-0.2-2-1-2.4c-2.6-1.1-7.7-2-7.7-2c-0.1,0-0.4-0.1-0.4-0.4l0-4.3
					c0-1.3-1.1-2.3-2.4-2.3h-2.1c-1.3,0-2.4,1.1-2.4,2.3l0,4.5c0,0.3-0.4,0.5-0.5,0.5c-6.4,1.5-10.4,6.2-10.4,12.1
					c0,7.4,6.1,10.7,12.7,13.2c5.3,2.1,7.4,4.2,7.4,7.2c0,3.3-3,5.7-7.4,5.7c-3.7,0-8.7-2.4-8.8-2.4c-0.3-0.2-0.7-0.2-1-0.2
					c-1,0-1.8,0.6-2.1,1.5l-1.1,3c-0.4,1.1,0.2,2,1,2.4c3.1,1.6,9.1,2.5,9.3,2.6c0.1,0,0.4,0.1,0.4,0.5v4.5c0,1.3,1.1,2.3,2.4,2.3
					h2.1c1.3,0,2.4-1.1,2.4-2.3v-4.7c0-0.4,0.3-0.5,0.4-0.5c6.8-1.5,11-6.5,11-12.8C1316.3,574.4,1312.7,570.2,1304.4,566.9z"/>
				<path fill="#FFFFFF" d="M1301.7,515c-31.1,0-56.3,25.2-56.3,56.3c0,31.1,25.2,56.3,56.3,56.3c31.1,0,56.3-25.2,56.3-56.3
					C1358,540.2,1332.8,515,1301.7,515z M1301.7,614.5c-23.9,0-43.3-19.4-43.3-43.3s19.4-43.3,43.3-43.3c23.9,0,43.3,19.4,43.3,43.3
					S1325.6,614.5,1301.7,614.5z"/>
			</g>
			<g>
				<path fill="#FFFFFF" d="M1346.5,654.8c-12,6.6-28.4,12.7-44.9,15.3c-14.6,2.3-42.1-3.2-42.1-9.8c0-2.5,24.1,6.1,38.7,2.2
					c11.2-3,9.6-13.4,3.5-14.8c-6-1.4-41.5-14.4-56.6-14.8c-7.1-0.2-24.7,2.5-33.2,3.9c-2.9,0.5-4.7,0.4-4.9,3.2
					c-0.8,13-2.5,39.5-3.4,53.4c0,0.3,0.4,4.2,3.6,1.5c3.6-3,8.5-6.4,13.2-5.3c7.2,1.6,69.9,13.1,78.5,11.1
					c12.4-2.9,47.3-23.6,54-30C1363.3,660.6,1355.3,650,1346.5,654.8z"/>
				<path fill="#FFFFFF" d="M1189.7,636.3l-32.8-1.6c-2.5-0.1-5.1,1.8-5.7,4.2l-6,54.2c-0.6,2.5,0.9,4.5,3.5,4.6l36.4,0
					c2.5,0.1,4.8-1.9,5-4.4l4-52.2C1194.2,638.6,1192.3,636.4,1189.7,636.3z M1170.4,690.6c-5,0-9.1-4.1-9.1-9.1
					c0-5,4.1-9.1,9.1-9.1c5,0,9.1,4.1,9.1,9.1C1179.5,686.5,1175.4,690.6,1170.4,690.6z"/>
			</g>
		</g>
	</g>
</g>
<g>
	<circle fill="#FCCB00" stroke="#FFFFFF" stroke-width="8" stroke-miterlimit="10" cx="1782.6" cy="437.7" r="159.1"/>
	<circle fill="none" stroke="#00AAE5" stroke-width="8" stroke-miterlimit="10" cx="1782.6" cy="437.7" r="171.4"/>
</g>
<g>
	<path fill="#FFFFFF" d="M1731.4,470.7c-12.2,0-22.1,9.9-22.1,22.1c0,12.2,9.9,22.1,22.1,22.1c12.2,0,22.1-9.9,22.1-22.1
		C1753.5,480.6,1743.6,470.7,1731.4,470.7z M1731.4,503.9c-6.1,0-11.1-5-11.1-11.1c0-6.1,5-11.1,11.1-11.1c6.1,0,11.1,5,11.1,11.1
		C1742.4,498.9,1737.5,503.9,1731.4,503.9z M1712.3,470.7h-49.5c-2,0-3.6,1.6-3.6,3.6V485c0,2,1.6,3.6,3.6,3.6h39.7
		C1703.5,481.5,1707.1,475.2,1712.3,470.7z M1847.1,470.7c-12.2,0-22.1,9.9-22.1,22.1c0,12.2,9.9,22.1,22.1,22.1
		c12.2,0,22.1-9.9,22.1-22.1C1869.2,480.6,1859.3,470.7,1847.1,470.7z M1847.1,503.9c-6.1,0-11.1-5-11.1-11.1
		c0-6.1,4.9-11.1,11.1-11.1c6.1,0,11.1,5,11.1,11.1C1858.1,498.9,1853.2,503.9,1847.1,503.9z M1904.7,470.7h-8.6v-48.3
		c0-5.6-1.7-11.2-4.9-15.9l-21.6-32.1c-5.3-7.8-14.1-12.5-23.6-12.5h-33.5c-3.9,0-7.1,3.2-7.1,7.1v101.6h-54.9
		c5.2,4.5,8.8,10.8,9.8,17.9h58c2-14.1,14.2-25,28.9-25c14.7,0,26.8,10.9,28.9,25h28.7c2,0,3.6-1.6,3.6-3.6v-10.8
		C1908.2,472.3,1906.7,470.7,1904.7,470.7z M1869.3,412.9H1825c-2,0-3.6-1.6-3.6-3.6v-24.6c0-2,1.6-3.6,3.6-3.6h27
		c1.2,0,2.3,0.6,2.9,1.5l17.3,24.6C1873.9,409.7,1872.2,412.9,1869.3,412.9z M1788.4,463.6h-124.4c-3.9,0-7.1-3.2-7.1-7.1v-32
		c0-3.9,3.2-7.1,7.1-7.1h124.4c3.9,0,7.1,3.2,7.1,7.1v32C1795.5,460.4,1792.3,463.6,1788.4,463.6z M1713.8,406.7h-49.7
		c-3.9,0-7.1-3.2-7.1-7.1v-32c0-3.9,3.2-7.1,7.1-7.1h49.7c3.9,0,7.1,3.2,7.1,7.1v32C1720.9,403.5,1717.7,406.7,1713.8,406.7z
		 M1788.4,406.7h-49.7c-3.9,0-7.1-3.2-7.1-7.1v-32c0-3.9,3.2-7.1,7.1-7.1h49.7c3.9,0,7.1,3.2,7.1,7.1v32
		C1795.5,403.5,1792.3,406.7,1788.4,406.7z"/>
</g>
<g>
	<circle fill="#FCCB00" stroke="#FFFFFF" stroke-width="8" stroke-miterlimit="10" cx="2313.7" cy="607.9" r="159.1"/>
	<circle fill="none" stroke="#00AAE5" stroke-width="8" stroke-miterlimit="10" cx="2313.7" cy="607.9" r="171.4"/>
</g>
<g>
	<g>
		<path fill="#FFFFFF" d="M2288.7,702.5c0,0-0.1,3.7,3.4,3.7c4.5,0,41.4,0,41.4,0l0.1-34c0,0-0.6-5.6,4.8-5.6h17.2
			c6.4,0,6,5.6,6,5.6l-0.1,33.9c0,0,35.1,0,40.6,0c4.6,0,4.4-4.6,4.4-4.6v-62.6l-57.2-50.9l-60.7,50.9
			C2288.7,638.8,2288.7,702.5,2288.7,702.5z"/>
		<path fill="#FFFFFF" d="M2266.4,634.1c0,0,5.2,9.5,16.4,0l67.2-56.8l63,56.5c13,9.4,17.9,0,17.9,0l-80.9-73.2L2266.4,634.1z"/>
		<polygon fill="#FFFFFF" points="2411.4,577.1 2395.2,577.1 2395.3,596.8 2411.4,610.4 		"/>
	</g>
	<g>
		<g>
			<path fill="#FFFFFF" d="M2219.7,539.9c2,2,5.1,2,7.1,0c2-2,2-5.1,0-7.1l-7-7c-2-2-5.1-2-7.1,0c-2,2-2,5.1,0,7.1L2219.7,539.9z"/>
			<path fill="#FFFFFF" d="M2301.6,559.7h-9.9c-2.8,0-5.1,2.2-5.1,5c0,2.8,2.2,5,5.1,5h9.9c2.8,0,5.1-2.2,5.1-5
				C2306.7,562,2304.4,559.7,2301.6,559.7z"/>
			<path fill="#FFFFFF" d="M2216.5,564.7c0-2.8-2.2-5-5.1-5h-9.9c-2.8,0-5.1,2.2-5.1,5c0,2.8,2.2,5,5.1,5h9.9
				C2214.3,569.8,2216.5,567.5,2216.5,564.7z"/>
			<path fill="#FFFFFF" d="M2251.6,534.7c-16.6,0-30,13.5-30,30c0,16.6,13.5,30,30,30c16.6,0,30-13.5,30-30
				C2281.6,548.1,2268.2,534.7,2251.6,534.7z M2251.6,584.8c-11.1,0-20-9-20-20c0-11.1,9-20,20-20c11.1,0,20,9,20,20
				C2271.6,575.8,2262.7,584.8,2251.6,584.8z"/>
			<path fill="#FFFFFF" d="M2219.7,589.6l-7,7c-2,2-2,5.1,0,7.1c2,2,5.1,2,7.1,0l7-7c2-2,2-5.1,0-7.1
				C2224.8,587.6,2221.7,587.6,2219.7,589.6z"/>
			<path fill="#FFFFFF" d="M2283.5,539.9l7-7c2-2,2-5.1,0-7.1c-2-2-5.1-2-7.1,0l-7,7c-2,2-2,5.1,0,7.1
				C2278.3,541.9,2281.5,541.9,2283.5,539.9z"/>
			<path fill="#FFFFFF" d="M2251.6,599.8c-2.8,0-5,2.2-5,5.1v9.9c0,2.8,2.2,5.1,5,5.1c2.8,0,5-2.2,5-5.1v-9.9
				C2256.6,602.1,2254.4,599.8,2251.6,599.8z"/>
			<path fill="#FFFFFF" d="M2283.5,589.6c-2-2-5.1-2-7.1,0c-2,2-2,5.1,0,7.1l7,7c2,2,5.1,2,7.1,0c2-2,2-5.1,0-7.1L2283.5,589.6z"/>
			<path fill="#FFFFFF" d="M2251.6,529.7c2.8,0,5-2.2,5-5.1v-9.9c0-2.8-2.2-5.1-5-5.1c-2.8,0-5,2.2-5,5.1v9.9
				C2246.6,527.4,2248.8,529.7,2251.6,529.7z"/>
		</g>
	</g>
</g>
<g>
	<path fill="#FFFFFF" d="M1043.7,499.3c0.5,0.5,1,0.9,1.5,1.4c0.8,0.8,2.2,0.9,3.1,0.1l1.1-0.9c0.9-0.7,1.1-2.1,0.5-3.1
		c-0.8-1.2-1.6-2.5-2.3-3.8c-1-1.6-2-3.3-3.1-4.9c-0.9-1.3-1.7-2.4-2.5-3.4c-18.3-23.3-42.3-38.9-71.3-46.5
		c-23.6-6.2-46.4-6.1-67.7,0.3c-1.4,0.4-2.8,1-4,1.6c-0.5,0.3-1.1,0.5-1.6,0.7c-1.1,0.5-1.7,1.7-1.3,2.9l0.3,1
		c0.1,0.2,0.2,0.4,0.3,0.6c0.5,0.7,1.2,1.1,2.1,1c1.3-0.1,2.6-0.2,3.8-0.3c2.8-0.2,5.5-0.4,8.3-0.6c29.1-2.3,55.1,2.1,79.4,13.3
		c17.6,8.1,34.1,20.4,50.3,37.4C1041.5,497.3,1042.6,498.3,1043.7,499.3z"/>
	<path fill="#FFFFFF" d="M1079.4,530.1c0.5-0.5,0.8-1.2,0.7-1.9c0-0.1,0-0.2,0-0.3c0-0.4,0-1-0.3-1.6c-6.3-15.7-8.9-32.7-10.9-47.4
		c-1.7-12.8-3.6-25.6-5.5-38.7c-0.2-1.4-0.6-2.7-1-3.9c-0.2-0.5-0.3-1-0.5-1.6c-0.3-1.2-1.6-1.9-2.8-1.6l-1.1,0.3
		c-1,0.2-1.7,1.1-1.8,2.2c-1.5,34,3.2,61.9,14.9,87c-3.8-1.4-7.5-2.8-11.2-4.2c-18.5-7-35.9-13.7-54.8-17.6c-1-0.2-2,0.3-2.5,1.2
		c-0.4,0.8-0.3,1.7,0.1,2.4c0.1,0.1,0.2,0.3,0.3,0.4c5.9,5.6,62.5,24.7,74.5,26.1C1078.3,530.8,1078.9,530.6,1079.4,530.1z"/>
</g>
<g>
	<path fill="#FFFFFF" d="M493.5,465.3c0.7,0,1.3,0,2-0.1c1.2,0,2.1-0.9,2.3-2.1l0.1-1.4c0.1-1.2-0.7-2.3-1.8-2.5
		c-1.4-0.3-2.9-0.7-4.3-1c-1.8-0.5-3.8-0.9-5.7-1.3c-1.5-0.3-2.9-0.5-4.2-0.7c-29.4-3.5-57.4,2.4-83.3,17.6
		c-21.1,12.3-37.1,28.5-47.7,48.1c-0.7,1.3-1.2,2.7-1.7,4c-0.2,0.6-0.4,1.1-0.6,1.7c-0.4,1.1,0,2.4,1.1,2.9l1,0.5
		c0.2,0.1,0.4,0.2,0.6,0.2c0.8,0.2,1.7-0.1,2.2-0.8c0.8-1,1.7-1.9,2.5-2.9c1.8-2.1,3.6-4.2,5.4-6.3c19-22.2,40.4-37.5,65.5-46.7
		c18.2-6.7,38.5-9.7,62-9.2C490.6,465.4,492.1,465.4,493.5,465.3z"/>
	<path fill="#FFFFFF" d="M540.6,461.8c0-0.7-0.3-1.4-0.9-1.8c-0.1-0.1-0.1-0.1-0.2-0.2c-0.3-0.3-0.7-0.7-1.4-0.9
		c-15.6-6.6-29.4-16.8-41.2-25.8c-10.3-7.9-20.6-15.6-31.2-23.5c-1.1-0.8-2.3-1.5-3.5-2.1c-0.5-0.2-1-0.5-1.4-0.8
		c-1.1-0.6-2.5-0.2-3.1,0.8l-0.6,1c-0.5,0.9-0.4,2,0.3,2.8c23,25.1,46,41.5,72,51c-3.7,1.7-7.3,3.3-10.9,4.9
		c-18.1,8.1-35.1,15.7-51.2,26.3c-0.9,0.6-1.2,1.6-0.9,2.6c0.3,0.8,0.9,1.4,1.8,1.6c0.2,0,0.3,0.1,0.5,0
		c8.1-0.2,61.6-26.7,71.1-34.2C540.3,463.1,540.6,462.5,540.6,461.8z"/>
</g>
<g>
	<g>
		<path fill="#FFFFFF" d="M365.6,478.6l3-2.5c0.4,0.4,0.8,0.6,1.1,0.5c0.3-0.1,0.8-0.3,1.3-0.8c0.5-0.4,0.9-0.8,1.1-1
			c0.2-0.2,0.2-0.5,0.2-0.8c-0.1-0.3-0.3-0.7-0.8-1.2c-0.5-0.6-0.9-0.9-1.1-1.1c-0.3-0.2-0.5-0.2-0.9-0.1c-0.3,0.1-0.8,0.4-1.4,0.9
			c-0.4,0.3-0.7,0.6-0.8,0.7c-0.2,0.2-0.3,0.3-0.3,0.5c0,0.2,0,0.4,0.1,0.6l-2.7,2.3l-5.6-6.6l8.5-7.2l1.9,2.3l-5.8,4.9l1.9,2.3
			c0-0.5,0.1-0.9,0.2-1.2c0.1-0.3,0.3-0.6,0.5-0.8c0.2-0.2,0.6-0.6,1.2-1.1c0.7-0.6,1.4-1,2-1.3c0.6-0.3,1.2-0.3,1.7-0.3
			c0.5,0.1,1.1,0.3,1.6,0.7c0.5,0.4,1.1,0.9,1.7,1.6c0.8,0.9,1.3,1.8,1.6,2.5c0.3,0.7,0.4,1.4,0.3,2s-0.4,1.2-0.9,1.8
			c-0.5,0.6-1.2,1.3-2.1,2.1c-0.8,0.7-1.5,1.2-2.1,1.5c-0.6,0.4-1.2,0.6-1.8,0.6c-0.6,0.1-1.2-0.1-1.7-0.3
			C366.8,479.8,366.2,479.3,365.6,478.6z"/>
		<path fill="#FFFFFF" d="M376.8,469.3l-1.3-1.9l8.4-5.9l1.3,1.9L376.8,469.3z"/>
		<path fill="#FFFFFF" d="M390.7,447.6l7.6,13.4l-3.6,2l-5.8-10.2l-1.7,5.1l-3.3-1.1l2.6-6.8L390.7,447.6z"/>
		<path fill="#FFFFFF" d="M401.4,442.3c0.9-0.4,1.7-0.7,2.4-0.9c0.7-0.2,1.3-0.3,2-0.2c0.7,0.1,1.3,0.4,1.9,0.9
			c0.6,0.5,1.2,1.4,1.7,2.5l2,4.4c0.5,1.1,0.7,2.1,0.7,2.9c0,0.8-0.2,1.5-0.6,2.1c-0.4,0.5-0.9,1-1.5,1.4c-0.6,0.4-1.4,0.8-2.3,1.2
			c-1.2,0.5-2.3,0.9-3.2,1.1c-0.9,0.2-1.8,0-2.6-0.5c-0.8-0.5-1.6-1.5-2.2-3l-2-4.4c-0.7-1.5-0.9-2.7-0.7-3.7c0.2-1,0.7-1.7,1.4-2.2
			S400.2,442.9,401.4,442.3z M402.8,445.4c-0.6,0.2-1,0.4-1.2,0.6c-0.2,0.1-0.4,0.3-0.5,0.5c-0.1,0.2-0.1,0.5,0,0.9
			c0.1,0.4,0.2,0.8,0.5,1.5l1.4,3.2c0.3,0.6,0.5,1.1,0.7,1.4c0.2,0.3,0.4,0.5,0.7,0.6c0.2,0.1,0.5,0.1,0.8,0
			c0.3-0.1,0.7-0.2,1.2-0.5c0.5-0.2,0.9-0.4,1.2-0.6c0.3-0.2,0.4-0.3,0.5-0.6c0.1-0.2,0.1-0.5,0-0.9c-0.1-0.4-0.3-0.8-0.5-1.5
			l-1.4-3.2c-0.3-0.6-0.5-1.1-0.7-1.4c-0.2-0.3-0.4-0.5-0.7-0.6c-0.2-0.1-0.5-0.1-0.7,0C403.8,445,403.3,445.2,402.8,445.4z"/>
		<path fill="#FFFFFF" d="M423.2,442.4l-0.1,0l1.9,7.8L422,451l-2.6-10.5l5-1.3l3.2,6l0.2,0l0-6.8l5-1.3l2.6,10.5l-3.1,0.8l-1.9-7.8
			l-0.1,0L430,449l-2.7,0.7L423.2,442.4z"/>
		<path fill="#FFFFFF" d="M447.4,446l-3.1,0.4l-0.9-6.6l-0.1,0l-2,7l-4,0.6l-1.5-10.7l3.1-0.4l0.9,6.6l0.2,0l1.9-6.9l4-0.5
			L447.4,446z"/>
		<path fill="#FFFFFF" d="M452.7,441.4l0.2,4.3l-3.5,0.1l-0.4-10.8l3.5-0.1l0.2,3.9l3.3-0.1l-0.2-3.9l3.5-0.1l0.4,10.8l-3.5,0.1
			l-0.2-4.3L452.7,441.4z"/>
		<path fill="#FFFFFF" d="M465.9,442l-0.1,3.6l-3.3-0.1l0.1-3.6L465.9,442z"/>
	</g>
</g>
<g>
	<g>
		<path fill="#FFFFFF" d="M2023.8,414.9l-2.1,15.3l-4.1-0.6l1.6-11.7l-4.5,3.1l-1.9-2.9l6.2-3.8L2023.8,414.9z"/>
		<path fill="#FFFFFF" d="M2026.7,426.5l0.6-2.3l10,2.4l-0.6,2.3L2026.7,426.5z"/>
		<path fill="#FFFFFF" d="M2045.3,429.7l-0.9-0.3l1-2.8l0.9,0.3c0.6,0.2,1.1,0.3,1.4,0.4c0.3,0,0.5,0,0.7-0.1
			c0.1-0.1,0.3-0.4,0.4-0.7c0.2-0.5,0.2-0.8,0.2-1c0-0.2-0.1-0.4-0.4-0.6c-0.2-0.2-0.7-0.4-1.4-0.6c-0.6-0.2-1-0.3-1.3-0.3
			c-0.3,0-0.5,0-0.8,0.2c-0.2,0.2-0.4,0.6-0.6,1.1l-0.1,0.3l-3.7-1.3l0.2-0.5c0.5-1.3,1-2.2,1.7-2.7c0.7-0.5,1.4-0.7,2.3-0.6
			c0.9,0.1,2,0.4,3.5,0.9c0.8,0.3,1.4,0.5,2,0.8c0.6,0.3,1.1,0.6,1.5,1.1c0.5,0.4,0.8,1,0.9,1.6c0.2,0.7,0.1,1.4-0.2,2.3
			c-0.3,0.9-0.7,1.6-1.3,2.1c-0.5,0.5-1.2,0.6-2.1,0.4l-0.1,0.2c1.6,0.6,2,1.9,1.4,4c-0.3,0.9-0.7,1.6-1.2,2.1
			c-0.5,0.5-1,0.8-1.6,0.9c-0.6,0.1-1.3,0.1-2,0c-0.7-0.1-1.5-0.3-2.5-0.6c-1-0.3-1.8-0.7-2.5-1c-0.7-0.3-1.2-0.7-1.6-1.2
			c-0.4-0.5-0.7-1.1-0.8-1.8c-0.1-0.7,0-1.6,0.4-2.6l0.3-0.8l3.7,1.3l-0.2,0.5c-0.2,0.5-0.2,0.9-0.1,1.2c0.1,0.3,0.3,0.5,0.5,0.7
			c0.3,0.2,0.7,0.3,1.2,0.5c0.6,0.2,1.1,0.3,1.4,0.4c0.3,0,0.6,0,0.8-0.2c0.2-0.2,0.4-0.6,0.6-1.1c0.1-0.4,0.2-0.7,0.1-0.9
			c0-0.2-0.2-0.4-0.5-0.6C2046.5,430.1,2046,429.9,2045.3,429.7z"/>
		<path fill="#FFFFFF" d="M2058.9,439.3c0.7-0.3,1.3-0.8,1.8-1.3c0.5-0.6,1-1.3,1.5-2.3l1.6-3.1l8.3,4.3l-3.8,7.4l0.9,0.5l-2.4,4.7
			l-2.8-1.5l1.3-2.5l-5.7-2.9l-1.3,2.5l-2.8-1.5l2.4-4.7L2058.9,439.3z M2065.3,442.6l2.7-5.2l-2.2-1.1l-0.5,1
			c-0.4,0.8-0.7,1.4-1,1.8c-0.3,0.4-0.6,0.8-0.9,1.1c-0.3,0.3-0.7,0.6-1.1,0.8L2065.3,442.6z"/>
		<path fill="#FFFFFF" d="M2074.4,445.8l-2.3,3.6l-3-1.9l5.9-9.1l3,1.9l-2.1,3.3l2.8,1.8l2.1-3.3l3,1.9l-5.9,9.1l-3-1.9l2.3-3.6
			L2074.4,445.8z"/>
		<path fill="#FFFFFF" d="M2087.1,460.3l-2.8-2.2l2.3-2.9l-1.1-0.9l-3.6,1.8l-3-2.4l4.1-1.8c-0.3-0.5-0.4-1.1-0.3-1.7
			c0.1-0.6,0.4-1.2,1-1.9c0.5-0.7,1-1.1,1.6-1.3c0.5-0.2,1.1-0.3,1.7-0.1c0.6,0.2,1.3,0.5,2,1.1l4.8,3.8L2087.1,460.3z
			 M2088.2,453.3l1.4-1.7l-1.4-1.1c-0.4-0.3-0.7-0.4-0.9-0.4c-0.3,0-0.5,0.2-0.7,0.5c-0.3,0.3-0.4,0.6-0.3,0.9
			c0,0.3,0.3,0.5,0.6,0.8L2088.2,453.3z"/>
	</g>
</g>
<g>
	<path fill="#FFFFFF" d="M1559.8,465.3c0.7,0,1.3,0,2-0.1c1.2,0,2.1-0.9,2.3-2.1l0.1-1.4c0.1-1.2-0.7-2.3-1.8-2.5
		c-1.4-0.3-2.9-0.7-4.3-1c-1.8-0.5-3.8-0.9-5.7-1.3c-1.5-0.3-2.9-0.5-4.2-0.7c-29.4-3.5-57.4,2.4-83.3,17.6
		c-21.1,12.3-37.1,28.5-47.7,48.1c-0.7,1.3-1.2,2.7-1.7,4c-0.2,0.6-0.4,1.1-0.6,1.7c-0.4,1.1,0,2.4,1.1,2.9l1,0.5
		c0.2,0.1,0.4,0.2,0.6,0.2c0.8,0.2,1.7-0.1,2.2-0.8c0.8-1,1.7-1.9,2.5-2.9c1.8-2.1,3.6-4.2,5.4-6.3c19-22.2,40.4-37.5,65.5-46.7
		c18.2-6.7,38.5-9.7,62-9.2C1556.8,465.4,1558.3,465.4,1559.8,465.3z"/>
	<path fill="#FFFFFF" d="M1606.8,461.8c0-0.7-0.3-1.4-0.9-1.8c-0.1-0.1-0.1-0.1-0.2-0.2c-0.3-0.3-0.7-0.7-1.4-0.9
		c-15.6-6.6-29.4-16.8-41.2-25.8c-10.3-7.9-20.6-15.6-31.2-23.5c-1.1-0.8-2.3-1.5-3.5-2.1c-0.5-0.2-1-0.5-1.4-0.8
		c-1.1-0.6-2.5-0.2-3.1,0.8l-0.6,1c-0.5,0.9-0.4,2,0.3,2.8c23,25.1,46,41.5,72,51c-3.7,1.7-7.3,3.3-10.9,4.9
		c-18.1,8.1-35.1,15.7-51.2,26.3c-0.9,0.6-1.2,1.6-0.9,2.6c0.3,0.8,0.9,1.4,1.8,1.6c0.2,0,0.3,0.1,0.5,0
		c8.1-0.2,61.6-26.7,71.1-34.2C1606.5,463.1,1606.8,462.5,1606.8,461.8z"/>
</g>
<g>
	<path fill="#FFFFFF" d="M2105.8,499.3c0.5,0.5,1,0.9,1.5,1.4c0.8,0.8,2.2,0.9,3.1,0.1l1.1-0.9c0.9-0.7,1.1-2.1,0.5-3.1
		c-0.8-1.2-1.6-2.5-2.3-3.8c-1-1.6-2-3.3-3.1-4.9c-0.9-1.3-1.7-2.4-2.5-3.4c-18.3-23.3-42.3-38.9-71.3-46.5
		c-23.6-6.2-46.4-6.1-67.7,0.3c-1.4,0.4-2.8,1-4,1.6c-0.5,0.3-1.1,0.5-1.6,0.7c-1.1,0.5-1.7,1.7-1.3,2.9l0.3,1
		c0.1,0.2,0.2,0.4,0.3,0.6c0.5,0.7,1.2,1.1,2.1,1c1.3-0.1,2.6-0.2,3.8-0.3c2.8-0.2,5.5-0.4,8.3-0.6c29.1-2.3,55.1,2.1,79.4,13.3
		c17.6,8.1,34.1,20.4,50.3,37.4C2103.6,497.3,2104.7,498.3,2105.8,499.3z"/>
	<path fill="#FFFFFF" d="M2141.6,530.1c0.5-0.5,0.8-1.2,0.7-1.9c0-0.1,0-0.2,0-0.3c0-0.4,0-1-0.3-1.6c-6.3-15.7-8.9-32.7-10.9-47.4
		c-1.7-12.8-3.6-25.6-5.5-38.7c-0.2-1.4-0.6-2.7-1-3.9c-0.2-0.5-0.3-1-0.5-1.6c-0.3-1.2-1.6-1.9-2.8-1.6l-1.1,0.3
		c-1,0.2-1.7,1.1-1.8,2.2c-1.5,34,3.2,61.9,14.9,87c-3.8-1.4-7.5-2.8-11.2-4.2c-18.5-7-35.9-13.7-54.8-17.6c-1-0.2-2,0.3-2.5,1.2
		c-0.4,0.8-0.3,1.7,0.1,2.4c0.1,0.1,0.2,0.3,0.3,0.4c5.9,5.6,62.5,24.7,74.5,26.1C2140.4,530.8,2141.1,530.6,2141.6,530.1z"/>
</g>
<g>
	<path fill="#FFFFFF" d="M528.7,634.6c5.1,0,7.6,2.4,7.6,5.9c0,2.3-1.4,4.1-3.4,4.9c2.7,0.7,4.4,2.7,4.4,5.7c0,4.1-3,6.9-7.4,6.9
		H518v-23.4H528.7z M522,644.3h5.6c3.1,0,4.6-0.9,4.6-3.2c0-2.9-2.1-3.2-4.5-3.2H522V644.3z M522,654.6h6.1c2.8,0,5.1-0.7,5.1-3.6
		c0-3.2-2.5-3.7-5.1-3.7H522V654.6z"/>
	<path fill="#FFFFFF" d="M540.7,658v-17h4.9l4.7,13.5h0.1L555,641h4.9v17h-3.6v-11.3h-0.1l-4,11.3h-3.8l-4-11.3h-0.1V658H540.7z"/>
	<path fill="#FFFFFF" d="M571.4,658.5c-5.2,0-8.4-3.8-8.4-8.8c0-5.3,3.5-9.2,8.2-9.2c5,0,8.1,3.6,8.1,9.5v0.4h-12.5
		c0.1,3.4,1.8,5.4,4.7,5.4c2.1,0,3.3-0.9,4-3.1h3.6C578.2,656.4,575.2,658.5,571.4,658.5z M571.2,643.3c-2.5,0-4,1.6-4.4,4.6h8.7
		C575.3,645.1,573.7,643.3,571.2,643.3z"/>
	<path fill="#FFFFFF" d="M589.7,658.4c-5.2,0-8.4-3.6-8.4-8.7c0-5.6,3.3-9.2,8.4-9.2c4.3,0,7.1,2.3,7.6,6.2h-3.7
		c-0.4-2.1-1.8-3.3-3.8-3.3c-2.9,0-4.7,2.3-4.7,6.1c0,3.7,1.7,6,4.5,6c2.2,0,3.7-1.4,4.1-3.9h3.7C597,655.7,594,658.4,589.7,658.4z"
		/>
	<path fill="#FFFFFF" d="M607.6,644v14h-3.7v-14h-5.6v-3h14.9v3H607.6z"/>
	<path fill="#FFFFFF" d="M622.2,658.5c-5.2,0-8.4-3.8-8.4-8.8c0-5.3,3.5-9.2,8.2-9.2c5,0,8.1,3.6,8.1,9.5v0.4h-12.5
		c0.1,3.4,1.8,5.4,4.7,5.4c2.1,0,3.3-0.9,4-3.1h3.6C629,656.4,626,658.5,622.2,658.5z M622,643.3c-2.5,0-4,1.6-4.4,4.6h8.7
		C626.1,645.1,624.5,643.3,622,643.3z"/>
	<path fill="#FFFFFF" d="M649.7,658.4c-5.2,0-8.4-3.6-8.4-8.7c0-5.6,3.3-9.2,8.4-9.2c4.3,0,7.1,2.3,7.6,6.2h-3.7
		c-0.4-2.1-1.8-3.3-3.8-3.3c-2.9,0-4.7,2.3-4.7,6.1c0,3.7,1.7,6,4.5,6c2.2,0,3.7-1.4,4.1-3.9h3.7C657,655.7,654,658.4,649.7,658.4z"
		/>
	<path fill="#FFFFFF" d="M678.5,658h-8.9v-17h9.4c3.2,0,5,1.5,5,4.1c0,1.9-0.8,2.8-2.4,3.6v0.1c2.1,0.6,3.2,2.1,3.2,4.4
		C684.7,656.2,682.5,658,678.5,658z M673.3,643.8v3.9h4.8c1.4,0,2.2-0.7,2.2-2c0-1.3-0.7-1.9-2.3-1.9H673.3z M673.3,650.5v4.7h5.2
		c1.6,0,2.5-0.8,2.5-2.3c0-1.5-0.9-2.4-2.5-2.4H673.3z"/>
	<path fill="#FFFFFF" d="M695.1,640.5c4,0,7,1.5,7,5.1v8.6c0,1,0.2,1.3,0.9,1.3c0.3,0,0.4,0,0.9-0.1v2.6c-1.2,0.3-1.7,0.4-2.4,0.4
		c-1.4,0-2.5-0.6-2.8-2c-1.5,1.5-3.7,2-6,2c-3.5,0-5.7-1.9-5.7-5.1c0-4.5,4.2-4.9,7.6-5.4c2.6-0.3,3.4-0.5,3.7-1
		c0.2-0.2,0.2-0.6,0.2-1.2c0-1.7-1.1-2.6-3.5-2.6c-2.4,0-3.5,0.8-3.8,3h-3.6C688.1,642.1,691,640.5,695.1,640.5z M694.5,650.4
		c-1.7,0.3-3.7,0.6-3.7,2.8c0,1.6,1.1,2.5,3.1,2.5c1.5,0,3-0.5,3.8-1.3c0.8-0.8,0.8-1.9,0.8-2.9v-2
		C697.2,650.2,695.9,650.2,694.5,650.4z"/>
	<path fill="#FFFFFF" d="M706.1,658v-17h4.9l4.7,13.5h0.1l4.6-13.5h4.9v17h-3.6v-11.3h-0.1l-4,11.3h-3.8l-4-11.3h-0.1V658H706.1z"/>
	<path fill="#FFFFFF" d="M729.3,658v-17h3.7v12.4h0.1l6.3-12.4h4.7v17h-3.7v-12.4h-0.1L734,658H729.3z"/>
	<path fill="#FFFFFF" d="M757.3,658v-17h14.9v17h-3.7v-14H761v14H757.3z"/>
	<path fill="#FFFFFF" d="M792.5,649.5c0,5.5-3.3,9-8.5,9c-5.3,0-8.6-3.5-8.6-9c0-5.5,3.4-9,8.6-9C789.2,640.5,792.5,644,792.5,649.5
		z M779.1,649.5c0,3.8,1.8,6.1,4.8,6.1c3,0,4.7-2.3,4.7-6.1c0-3.7-1.8-6-4.8-6S779.1,645.8,779.1,649.5z"/>
	<path fill="#FFFFFF" d="M809.1,663.4V658h-12.1v5.4h-3.6V655h2.1c1.2-2.9,2-6.5,2-12.1V641h12.8v14h2.3v8.4H809.1z M806.7,643.9
		h-5.5v1.2c0,3.9-1.1,8.3-1.7,10h7.2V643.9z"/>
	<path fill="#FFFFFF" d="M823.1,658.4c-3.6,0-6.4-1.5-7.7-4.7c-0.6-1.4-0.9-3.2-0.9-5.4c0-3.3,0.5-7.4,2.1-10
		c1.5-2.3,3.6-3.3,6.8-3.6c2.1-0.2,3-0.1,3.4-0.9h3.7c-0.7,4-3.8,3.8-7.6,4.1c-3.3,0.3-5.1,2.9-6,6.4h0.1c1.3-2.2,3.1-3.5,6.3-3.5
		c4.3,0,7.7,3.4,7.7,8.7C831.3,655,828,658.4,823.1,658.4z M822.9,643.9c-2.7,0-4.6,2.2-4.6,5.8c0,3.5,1.9,5.8,4.6,5.8
		s4.6-2.3,4.6-5.8C827.5,646.2,825.7,643.9,822.9,643.9z"/>
	<path fill="#FFFFFF" d="M834.5,658v-17h3.7v12.4h0.1l6.3-12.4h4.7v17h-3.7v-12.4h-0.1l-6.3,12.4H834.5z"/>
	<path fill="#FFFFFF" d="M856.9,643.3c1.2-1.9,3.3-2.8,5.5-2.8c4.7,0,7.7,3.6,7.7,9c0,5.4-3,8.8-7.5,8.8c-2.3,0-4.2-0.8-5.5-2.7v8.5
		h-3.7V641h3.5V643.3z M857,649.5c0,3.7,1.8,5.9,4.8,5.9c2.9,0,4.6-2.2,4.6-5.9c0-3.7-1.8-6-4.7-6C858.8,643.5,857,645.8,857,649.5z
		"/>
	<path fill="#FFFFFF" d="M880.7,640.5c4,0,7,1.5,7,5.1v8.6c0,1,0.2,1.3,0.9,1.3c0.3,0,0.4,0,0.9-0.1v2.6c-1.2,0.3-1.7,0.4-2.4,0.4
		c-1.4,0-2.5-0.6-2.8-2c-1.5,1.5-3.7,2-6,2c-3.5,0-5.7-1.9-5.7-5.1c0-4.5,4.2-4.9,7.6-5.4c2.6-0.3,3.4-0.5,3.7-1
		c0.2-0.2,0.2-0.6,0.2-1.2c0-1.7-1.1-2.6-3.5-2.6c-2.4,0-3.5,0.8-3.8,3h-3.6C873.7,642.1,876.6,640.5,880.7,640.5z M880.1,650.4
		c-1.7,0.3-3.7,0.6-3.7,2.8c0,1.6,1.1,2.5,3.1,2.5c1.5,0,3-0.5,3.8-1.3c0.8-0.8,0.8-1.9,0.8-2.9v-2
		C882.9,650.2,881.5,650.2,880.1,650.4z"/>
	<path fill="#FFFFFF" d="M899.2,658.5c-5.2,0-8.4-3.8-8.4-8.8c0-5.3,3.5-9.2,8.2-9.2c5,0,8.1,3.6,8.1,9.5v0.4h-12.5
		c0.1,3.4,1.8,5.4,4.7,5.4c2.1,0,3.3-0.9,4-3.1h3.6C906.1,656.4,903,658.5,899.2,658.5z M899.1,643.3c-2.5,0-4,1.6-4.4,4.6h8.7
		C903.2,645.1,901.5,643.3,899.1,643.3z"/>
	<path fill="#FFFFFF" d="M910,658v-17h4.9l4.7,13.5h0.1l4.6-13.5h4.9v17h-3.6v-11.3h-0.1l-4,11.3h-3.8l-4-11.3h-0.1V658H910z"/>
	<path fill="#FFFFFF" d="M554.6,697.4l-5.3-7.6l-2.2,2.3v5.3h-3.7v-17h3.7v7.5l6.8-7.5h4.6l-6.6,6.8l7.4,10.2H554.6z"/>
	<path fill="#FFFFFF" d="M576.9,689c0,5.5-3.3,9-8.5,9c-5.3,0-8.6-3.5-8.6-9c0-5.5,3.4-9,8.6-9C573.6,680,576.9,683.5,576.9,689z
		 M563.5,689c0,3.8,1.8,6.1,4.8,6.1c3,0,4.7-2.3,4.7-6.1c0-3.7-1.8-6-4.8-6C565.4,682.9,563.5,685.2,563.5,689z"/>
	<path fill="#FFFFFF" d="M587.2,683.4v14h-3.7v-14h-5.6v-3h14.9v3H587.2z"/>
	<path fill="#FFFFFF" d="M601.8,698c-5.2,0-8.4-3.8-8.4-8.8c0-5.3,3.5-9.2,8.2-9.2c5,0,8.1,3.6,8.1,9.5v0.4h-12.5
		c0.1,3.4,1.8,5.4,4.7,5.4c2.1,0,3.3-0.9,4-3.1h3.6C608.6,695.9,605.6,698,601.8,698z M601.6,682.8c-2.5,0-4,1.6-4.4,4.6h8.7
		C605.7,684.5,604.1,682.8,601.6,682.8z"/>
	<path fill="#FFFFFF" d="M623.2,697.4v-14H618l-0.2,7.4c-0.1,4.4-2,7-5.1,7c-0.8,0-1.8-0.2-2.3-0.4v-2.9c0.3,0.1,1,0.2,1.3,0.2
		c1.1,0,2.3-0.8,2.4-4.2l0.3-10H627v17H623.2z"/>
	<path fill="#FFFFFF" d="M647.6,697.9c-5.2,0-8.4-3.6-8.4-8.7c0-5.6,3.3-9.2,8.4-9.2c4.3,0,7.1,2.3,7.6,6.2h-3.7
		c-0.4-2.1-1.8-3.3-3.8-3.3c-2.9,0-4.7,2.3-4.7,6.1c0,3.7,1.7,6,4.5,6c2.2,0,3.7-1.4,4.1-3.9h3.7
		C654.9,695.2,651.9,697.9,647.6,697.9z"/>
	<path fill="#FFFFFF" d="M674.6,689c0,5.5-3.3,9-8.5,9c-5.3,0-8.6-3.5-8.6-9c0-5.5,3.4-9,8.6-9C671.4,680,674.6,683.5,674.6,689z
		 M661.3,689c0,3.8,1.8,6.1,4.8,6.1c3,0,4.7-2.3,4.7-6.1c0-3.7-1.8-6-4.8-6C663.1,682.9,661.3,685.2,661.3,689z"/>
	<path fill="#FFFFFF" d="M681.5,683.4v14h-3.7v-17h11.9v3H681.5z"/>
	<path fill="#FFFFFF" d="M701.2,697.4v-14H696l-0.2,7.4c-0.1,4.4-2,7-5.1,7c-0.8,0-1.8-0.2-2.3-0.4v-2.9c0.3,0.1,1,0.2,1.3,0.2
		c1.1,0,2.3-0.8,2.4-4.2l0.3-10H705v17H701.2z"/>
	<path fill="#FFFFFF" d="M716.1,679.9c4,0,7,1.5,7,5.1v8.6c0,1,0.2,1.2,0.9,1.2c0.3,0,0.4,0,0.9-0.1v2.6c-1.2,0.3-1.7,0.4-2.4,0.4
		c-1.4,0-2.5-0.6-2.8-2c-1.5,1.5-3.7,2-6,2c-3.5,0-5.7-1.9-5.7-5.1c0-4.5,4.2-4.9,7.6-5.4c2.6-0.3,3.4-0.5,3.7-1
		c0.2-0.2,0.2-0.6,0.2-1.2c0-1.7-1.1-2.6-3.5-2.6c-2.4,0-3.5,0.8-3.8,3h-3.6C709.1,681.5,712,679.9,716.1,679.9z M715.5,689.8
		c-1.7,0.3-3.7,0.6-3.7,2.8c0,1.6,1.1,2.5,3.1,2.5c1.5,0,3-0.5,3.8-1.3c0.8-0.8,0.8-1.9,0.8-2.9v-2
		C718.3,689.6,716.9,689.6,715.5,689.8z"/>
	<path fill="#FFFFFF" d="M734.8,697.9c-5.2,0-8.4-3.6-8.4-8.7c0-5.6,3.3-9.2,8.4-9.2c4.3,0,7.1,2.3,7.6,6.2h-3.7
		c-0.4-2.1-1.8-3.3-3.8-3.3c-2.9,0-4.7,2.3-4.7,6.1c0,3.7,1.7,6,4.5,6c2.2,0,3.7-1.4,4.1-3.9h3.7C742,695.2,739,697.9,734.8,697.9z"
		/>
	<path fill="#FFFFFF" d="M745.4,697.4v-17h3.7v6.6h7.4v-6.6h3.7v17h-3.7v-7.4h-7.4v7.4H745.4z"/>
	<path fill="#FFFFFF" d="M780.7,689c0,5.5-3.3,9-8.5,9c-5.3,0-8.6-3.5-8.6-9c0-5.5,3.4-9,8.6-9C777.4,680,780.7,683.5,780.7,689z
		 M767.3,689c0,3.8,1.8,6.1,4.8,6.1c3,0,4.7-2.3,4.7-6.1c0-3.7-1.8-6-4.8-6C769.1,682.9,767.3,685.2,767.3,689z"/>
	<path fill="#FFFFFF" d="M801.9,697.4H793v-17h9.4c3.2,0,5,1.5,5,4.1c0,1.9-0.8,2.8-2.4,3.6v0.1c2.1,0.6,3.2,2.1,3.2,4.4
		C808.1,695.7,805.9,697.4,801.9,697.4z M796.7,683.3v3.9h4.8c1.4,0,2.2-0.7,2.2-2c0-1.3-0.7-1.9-2.3-1.9H796.7z M796.7,689.9v4.7
		h5.2c1.6,0,2.5-0.8,2.5-2.3c0-1.5-0.9-2.4-2.5-2.4H796.7z"/>
	<path fill="#FFFFFF" d="M818.5,679.9c4,0,7,1.5,7,5.1v8.6c0,1,0.2,1.2,0.9,1.2c0.3,0,0.4,0,0.9-0.1v2.6c-1.2,0.3-1.7,0.4-2.4,0.4
		c-1.4,0-2.5-0.6-2.8-2c-1.5,1.5-3.7,2-6,2c-3.5,0-5.7-1.9-5.7-5.1c0-4.5,4.2-4.9,7.6-5.4c2.6-0.3,3.4-0.5,3.7-1
		c0.2-0.2,0.2-0.6,0.2-1.2c0-1.7-1.1-2.6-3.5-2.6c-2.4,0-3.5,0.8-3.8,3h-3.6C811.5,681.5,814.4,679.9,818.5,679.9z M817.9,689.8
		c-1.7,0.3-3.7,0.6-3.7,2.8c0,1.6,1.1,2.5,3.1,2.5c1.5,0,3-0.5,3.8-1.3c0.8-0.8,0.8-1.9,0.8-2.9v-2
		C820.6,689.6,819.3,689.6,817.9,689.8z"/>
	<path fill="#FFFFFF" d="M829.5,680.5h3.7v14h5.8v-14h3.7v14h5.8v-14h3.7v17h-22.8V680.5z"/>
	<path fill="#FFFFFF" d="M856.3,697.4v-17h3.7v12.4h0.1l6.3-12.4h4.7v17h-3.7v-12.4h-0.1l-6.3,12.4H856.3z"/>
	<path fill="#FFFFFF" d="M875.2,697.4v-17h4.9l4.7,13.5h0.1l4.6-13.5h4.9v17h-3.6v-11.3h-0.1l-4,11.3h-3.8l-4-11.3h-0.1v11.3H875.2z
		"/>
	<path fill="#FFFFFF" d="M622.2,736.9v-17h14.9v17h-3.7v-14h-7.4v14H622.2z"/>
	<path fill="#FFFFFF" d="M657.4,728.4c0,5.5-3.3,9-8.5,9c-5.3,0-8.6-3.5-8.6-9c0-5.5,3.4-9,8.6-9
		C654.1,719.4,657.4,722.9,657.4,728.4z M644.1,728.4c0,3.8,1.8,6.1,4.8,6.1c3,0,4.7-2.3,4.7-6.1c0-3.7-1.8-6-4.8-6
		C645.9,722.4,644.1,724.7,644.1,728.4z"/>
	<path fill="#FFFFFF" d="M679.6,736.9l-5.2-7.4l-1.6,1.8v5.6h-3.6v-5.6l-1.6-1.8l-5.2,7.4h-4.5l7.3-9.7l-6.5-7.2h4.5l5.8,7.2h0.1
		v-7.2h3.6v7.2h0.1l5.8-7.2h4.5l-6.5,7.2l7.3,9.7H679.6z"/>
	<path fill="#FFFFFF" d="M692.9,737.5c-5.2,0-8.4-3.8-8.4-8.8c0-5.3,3.5-9.2,8.2-9.2c5,0,8.1,3.6,8.1,9.5v0.4h-12.5
		c0.1,3.4,1.8,5.4,4.7,5.4c2.1,0,3.3-0.9,4-3.1h3.6C699.7,735.3,696.7,737.5,692.9,737.5z M692.7,722.2c-2.5,0-4,1.6-4.4,4.6h8.7
		C696.8,724,695.2,722.2,692.7,722.2z"/>
	<path fill="#FFFFFF" d="M714.3,736.9v-14h-5.2l-0.2,7.4c-0.1,4.4-2,7-5.1,7c-0.8,0-1.8-0.2-2.3-0.4V734c0.3,0.1,1,0.2,1.3,0.2
		c1.1,0,2.3-0.8,2.4-4.2l0.3-10H718v17H714.3z"/>
	<path fill="#FFFFFF" d="M729.2,719.4c4,0,7,1.5,7,5.1v8.6c0,1,0.2,1.3,0.9,1.3c0.3,0,0.4,0,0.9-0.1v2.6c-1.2,0.3-1.7,0.4-2.4,0.4
		c-1.4,0-2.5-0.6-2.8-2c-1.5,1.5-3.7,2-6,2c-3.5,0-5.7-1.9-5.7-5.1c0-4.5,4.2-4.9,7.6-5.4c2.6-0.3,3.4-0.5,3.7-1
		c0.2-0.2,0.2-0.6,0.2-1.2c0-1.7-1.1-2.6-3.5-2.6c-2.4,0-3.5,0.8-3.8,3h-3.6C722.2,721,725.1,719.4,729.2,719.4z M728.6,729.3
		c-1.7,0.3-3.7,0.6-3.7,2.8c0,1.6,1.1,2.5,3.1,2.5c1.5,0,3-0.5,3.8-1.3c0.8-0.8,0.8-1.9,0.8-2.9v-2
		C731.3,729.1,729.9,729.1,728.6,729.3z"/>
	<path fill="#FFFFFF" d="M740.2,736.9v-17h3.7v6.6h7.4v-6.6h3.7v17h-3.7v-7.4H744v7.4H740.2z"/>
	<path fill="#FFFFFF" d="M759.1,736.9v-17h3.7v12.4h0.1l6.3-12.4h4.7v17h-3.7v-12.4h-0.1l-6.3,12.4H759.1z"/>
	<path fill="#FFFFFF" d="M788.5,736.9v-6.8h-3.2l-5.2,6.8h-4.4l5.7-7.3c-3-1-3.6-2.9-3.6-5c0-3,2-4.7,5.6-4.7h9v17H788.5z
		 M788.5,722.8H784c-1.7,0-2.5,0.7-2.5,2.2c0,1.5,0.9,2.4,2.5,2.4h4.6V722.8z"/>
	<path fill="#FFFFFF" d="M796.2,736.9v-17h4.9l4.7,13.5h0.1l4.6-13.5h4.9v17h-3.6v-11.3h-0.1l-4,11.3H804l-4-11.3h-0.1v11.3H796.2z"
		/>
</g>
<g>
	<path fill="#FFFFFF" d="M1669.7,658.5c-6.6,0-10.9-4.9-10.9-12.3c0-6.6,4-12.2,11.1-12.2c4.7,0,9,2.6,9.8,8h-4.1
		c-0.6-2.8-2.8-4.5-5.8-4.5c-4.9,0-6.9,4.4-6.9,8.7c0,4.3,1.9,8.8,6.9,8.8c3.8,0,5.6-2.5,6-6h4.1
		C1679.5,654.8,1675.6,658.5,1669.7,658.5z"/>
	<path fill="#FFFFFF" d="M1699.4,649.5c0,5.5-3.3,9-8.5,9c-5.3,0-8.6-3.5-8.6-9c0-5.5,3.4-9,8.6-9
		C1696.2,640.5,1699.4,644,1699.4,649.5z M1686.1,649.5c0,3.8,1.8,6.1,4.8,6.1c3,0,4.7-2.3,4.7-6.1c0-3.7-1.8-6-4.8-6
		C1687.9,643.5,1686.1,645.8,1686.1,649.5z"/>
	<path fill="#FFFFFF" d="M1706.4,644v14h-3.7v-17h11.9v3H1706.4z"/>
	<path fill="#FFFFFF" d="M1726,658v-14h-5.2l-0.2,7.4c-0.1,4.4-2,7-5.1,7c-0.8,0-1.8-0.2-2.3-0.4v-2.9c0.3,0.1,1,0.2,1.3,0.2
		c1.1,0,2.3-0.8,2.4-4.2l0.3-10h12.5v17H1726z"/>
	<path fill="#FFFFFF" d="M1740.9,640.5c4,0,7,1.5,7,5.1v8.6c0,1,0.2,1.3,0.9,1.3c0.3,0,0.4,0,0.9-0.1v2.6c-1.2,0.3-1.7,0.4-2.4,0.4
		c-1.4,0-2.5-0.6-2.8-2c-1.5,1.5-3.7,2-6,2c-3.5,0-5.7-1.9-5.7-5.1c0-4.5,4.2-4.9,7.6-5.4c2.6-0.3,3.4-0.5,3.7-1
		c0.2-0.2,0.2-0.6,0.2-1.2c0-1.7-1.1-2.6-3.5-2.6c-2.4,0-3.5,0.8-3.8,3h-3.6C1733.9,642.1,1736.8,640.5,1740.9,640.5z M1740.4,650.4
		c-1.7,0.3-3.7,0.6-3.7,2.8c0,1.6,1.1,2.5,3.1,2.5c1.5,0,3-0.5,3.8-1.3c0.8-0.8,0.8-1.9,0.8-2.9v-2
		C1743.1,650.2,1741.7,650.2,1740.4,650.4z"/>
	<path fill="#FFFFFF" d="M1759.6,658.4c-5.2,0-8.4-3.6-8.4-8.7c0-5.6,3.3-9.2,8.4-9.2c4.3,0,7.1,2.3,7.6,6.2h-3.7
		c-0.4-2.1-1.8-3.3-3.8-3.3c-2.9,0-4.7,2.3-4.7,6.1c0,3.7,1.7,6,4.5,6c2.2,0,3.7-1.4,4.1-3.9h3.7
		C1766.8,655.7,1763.8,658.4,1759.6,658.4z"/>
	<path fill="#FFFFFF" d="M1786.6,649.5c0,5.5-3.3,9-8.5,9c-5.3,0-8.6-3.5-8.6-9c0-5.5,3.4-9,8.6-9
		C1783.3,640.5,1786.6,644,1786.6,649.5z M1773.2,649.5c0,3.8,1.8,6.1,4.8,6.1c3,0,4.7-2.3,4.7-6.1c0-3.7-1.8-6-4.8-6
		C1775.1,643.5,1773.2,645.8,1773.2,649.5z"/>
	<path fill="#FFFFFF" d="M1798.7,658h-8.9v-17h9.4c3.2,0,5,1.5,5,4.1c0,1.9-0.8,2.8-2.4,3.6v0.1c2.1,0.6,3.2,2.1,3.2,4.4
		C1804.9,656.2,1802.7,658,1798.7,658z M1793.5,643.8v3.9h4.8c1.4,0,2.2-0.7,2.2-2c0-1.3-0.7-1.9-2.3-1.9H1793.5z M1793.5,650.5v4.7
		h5.2c1.6,0,2.5-0.8,2.5-2.3c0-1.5-0.9-2.4-2.5-2.4H1793.5z"/>
	<path fill="#FFFFFF" d="M1816.1,658h-8.3v-17h3.7v6.1h4.5c3.7,0,5.8,2.1,5.8,5.4C1821.9,655.9,1819.8,658,1816.1,658z
		 M1815.7,650.1h-4v5h4.1c1.7,0,2.4-1.1,2.4-2.4C1818.2,651.1,1817.3,650.1,1815.7,650.1z M1828,641v17h-3.7v-17H1828z"/>
	<path fill="#FFFFFF" d="M1840.7,658h-8.9v-17h9.4c3.2,0,5,1.5,5,4.1c0,1.9-0.8,2.8-2.4,3.6v0.1c2.1,0.6,3.2,2.1,3.2,4.4
		C1846.9,656.2,1844.7,658,1840.7,658z M1835.5,643.8v3.9h4.8c1.4,0,2.2-0.7,2.2-2c0-1.3-0.7-1.9-2.3-1.9H1835.5z M1835.5,650.5v4.7
		h5.2c1.6,0,2.5-0.8,2.5-2.3c0-1.5-0.9-2.4-2.5-2.4H1835.5z"/>
	<path fill="#FFFFFF" d="M1857.3,640.5c4,0,7,1.5,7,5.1v8.6c0,1,0.2,1.3,0.9,1.3c0.3,0,0.4,0,0.9-0.1v2.6c-1.2,0.3-1.7,0.4-2.4,0.4
		c-1.4,0-2.5-0.6-2.8-2c-1.5,1.5-3.7,2-6,2c-3.5,0-5.7-1.9-5.7-5.1c0-4.5,4.2-4.9,7.6-5.4c2.6-0.3,3.4-0.5,3.7-1
		c0.2-0.2,0.2-0.6,0.2-1.2c0-1.7-1.1-2.6-3.5-2.6c-2.4,0-3.5,0.8-3.8,3h-3.6C1850.3,642.1,1853.2,640.5,1857.3,640.5z M1856.7,650.4
		c-1.7,0.3-3.7,0.6-3.7,2.8c0,1.6,1.1,2.5,3.1,2.5c1.5,0,3-0.5,3.8-1.3c0.8-0.8,0.8-1.9,0.8-2.9v-2
		C1859.5,650.2,1858.1,650.2,1856.7,650.4z"/>
	<path fill="#FFFFFF" d="M1875.8,658.5c-5.2,0-8.4-3.8-8.4-8.8c0-5.3,3.5-9.2,8.2-9.2c5,0,8.1,3.6,8.1,9.5v0.4h-12.5
		c0.1,3.4,1.8,5.4,4.7,5.4c2.1,0,3.3-0.9,4-3.1h3.6C1882.7,656.4,1879.6,658.5,1875.8,658.5z M1875.7,643.3c-2.5,0-4,1.6-4.4,4.6
		h8.7C1879.8,645.1,1878.1,643.3,1875.7,643.3z"/>
	<path fill="#FFFFFF" d="M1886.6,658v-17h4.9l4.7,13.5h0.1l4.6-13.5h4.9v17h-3.6v-11.3h-0.1l-4,11.3h-3.8l-4-11.3h-0.1V658H1886.6z"
		/>
	<path fill="#FFFFFF" d="M1658.2,697.9c-5.2,0-8.4-3.6-8.4-8.7c0-5.6,3.3-9.2,8.4-9.2c4.3,0,7.1,2.3,7.6,6.2h-3.7
		c-0.4-2.1-1.8-3.3-3.8-3.3c-2.9,0-4.7,2.3-4.7,6.1c0,3.7,1.7,6,4.5,6c2.2,0,3.7-1.4,4.1-3.9h3.7
		C1665.4,695.2,1662.4,697.9,1658.2,697.9z"/>
	<path fill="#FFFFFF" d="M1668.9,697.4v-17h14.9v17h-3.7v-14h-7.4v14H1668.9z"/>
	<path fill="#FFFFFF" d="M1704.1,689c0,5.5-3.3,9-8.5,9c-5.3,0-8.6-3.5-8.6-9c0-5.5,3.4-9,8.6-9C1700.8,680,1704.1,683.5,1704.1,689
		z M1690.7,689c0,3.8,1.8,6.1,4.8,6.1c3,0,4.7-2.3,4.7-6.1c0-3.7-1.8-6-4.8-6C1692.6,682.9,1690.7,685.2,1690.7,689z"/>
	<path fill="#FFFFFF" d="M1714.8,697.9c-5.2,0-8.4-3.6-8.4-8.7c0-5.6,3.3-9.2,8.4-9.2c4.3,0,7.1,2.3,7.6,6.2h-3.7
		c-0.4-2.1-1.8-3.3-3.8-3.3c-2.9,0-4.7,2.3-4.7,6.1c0,3.7,1.7,6,4.5,6c2.2,0,3.7-1.4,4.1-3.9h3.7
		C1722.1,695.2,1719.1,697.9,1714.8,697.9z"/>
	<path fill="#FFFFFF" d="M1741.9,689c0,5.5-3.3,9-8.5,9c-5.3,0-8.6-3.5-8.6-9c0-5.5,3.4-9,8.6-9C1738.6,680,1741.9,683.5,1741.9,689
		z M1728.5,689c0,3.8,1.8,6.1,4.8,6.1c3,0,4.7-2.3,4.7-6.1c0-3.7-1.8-6-4.8-6C1730.4,682.9,1728.5,685.2,1728.5,689z"/>
	<path fill="#FFFFFF" d="M1753.1,697.9c-3.6,0-6.4-1.5-7.7-4.7c-0.6-1.4-0.9-3.2-0.9-5.4c0-3.3,0.5-7.4,2.1-10
		c1.5-2.3,3.6-3.3,6.8-3.6c2.1-0.2,3-0.1,3.4-0.9h3.7c-0.7,4-3.8,3.8-7.6,4.1c-3.3,0.3-5.1,2.9-6,6.4h0.1c1.3-2.2,3.1-3.5,6.3-3.5
		c4.3,0,7.7,3.4,7.7,8.7C1761.3,694.4,1758.1,697.9,1753.1,697.9z M1753,683.4c-2.7,0-4.6,2.2-4.6,5.8s1.9,5.8,4.6,5.8
		s4.6-2.3,4.6-5.8C1757.6,685.7,1755.7,683.4,1753,683.4z"/>
	<path fill="#FFFFFF" d="M1787.5,702.8v-5.4h-12.1v5.4h-3.6v-8.4h2.1c1.2-2.9,2-6.5,2-12.1v-1.9h12.8v14h2.3v8.4H1787.5z
		 M1785.1,683.4h-5.5v1.2c0,3.9-1.1,8.3-1.7,10h7.2V683.4z"/>
	<path fill="#FFFFFF" d="M1809.7,689c0,5.5-3.3,9-8.5,9c-5.3,0-8.6-3.5-8.6-9c0-5.5,3.4-9,8.6-9C1806.4,680,1809.7,683.5,1809.7,689
		z M1796.4,689c0,3.8,1.8,6.1,4.8,6.1c3,0,4.7-2.3,4.7-6.1c0-3.7-1.8-6-4.8-6C1798.2,682.9,1796.4,685.2,1796.4,689z"/>
	<path fill="#FFFFFF" d="M1820.5,697.9c-5.2,0-8.4-3.6-8.4-8.7c0-5.6,3.3-9.2,8.4-9.2c4.3,0,7.1,2.3,7.6,6.2h-3.7
		c-0.4-2.1-1.8-3.3-3.8-3.3c-2.9,0-4.7,2.3-4.7,6.1c0,3.7,1.7,6,4.5,6c2.2,0,3.7-1.4,4.1-3.9h3.7
		C1827.8,695.2,1824.7,697.9,1820.5,697.9z"/>
	<path fill="#FFFFFF" d="M1838.3,683.4v14h-3.7v-14h-5.6v-3h14.9v3H1838.3z"/>
	<path fill="#FFFFFF" d="M1852.7,679.9c4,0,7,1.5,7,5.1v8.6c0,1,0.2,1.2,0.9,1.2c0.3,0,0.4,0,0.9-0.1v2.6c-1.2,0.3-1.7,0.4-2.4,0.4
		c-1.4,0-2.5-0.6-2.8-2c-1.5,1.5-3.7,2-6,2c-3.5,0-5.7-1.9-5.7-5.1c0-4.5,4.2-4.9,7.6-5.4c2.6-0.3,3.4-0.5,3.7-1
		c0.2-0.2,0.2-0.6,0.2-1.2c0-1.7-1.1-2.6-3.5-2.6c-2.4,0-3.5,0.8-3.8,3h-3.6C1845.7,681.5,1848.6,679.9,1852.7,679.9z M1852.1,689.8
		c-1.7,0.3-3.7,0.6-3.7,2.8c0,1.6,1.1,2.5,3.1,2.5c1.5,0,3-0.5,3.8-1.3c0.8-0.8,0.8-1.9,0.8-2.9v-2
		C1854.9,689.6,1853.5,689.6,1852.1,689.8z"/>
	<path fill="#FFFFFF" d="M1872.6,697.4h-8.9v-17h9.4c3.2,0,5,1.5,5,4.1c0,1.9-0.8,2.8-2.4,3.6v0.1c2.1,0.6,3.2,2.1,3.2,4.4
		C1878.9,695.7,1876.7,697.4,1872.6,697.4z M1867.5,683.3v3.9h4.8c1.4,0,2.2-0.7,2.2-2c0-1.3-0.7-1.9-2.3-1.9H1867.5z M1867.5,689.9
		v4.7h5.2c1.6,0,2.5-0.8,2.5-2.3c0-1.5-0.9-2.4-2.5-2.4H1867.5z"/>
	<path fill="#FFFFFF" d="M1893.3,697.4l-5.3-7.6l-2.2,2.3v5.3h-3.7v-17h3.7v7.5l6.8-7.5h4.6l-6.6,6.8l7.4,10.2H1893.3z"/>
	<path fill="#FFFFFF" d="M1899.7,697.4v-17h3.7v12.4h0.1l6.3-12.4h4.7v17h-3.7v-12.4h-0.1l-6.3,12.4H1899.7z"/>
	<path fill="#FFFFFF" d="M1622.3,728.4c0,5.3,1.4,10.2,4,14.8h-3c-2.8-4.6-4.7-8.7-4.7-14.7c0-5.1,1.5-10.5,4.7-15.1h3
		C1623.8,718,1622.3,722.3,1622.3,728.4z"/>
	<path fill="#FFFFFF" d="M1647.4,736.9h-4.1v-10.5h-10.7v10.5h-4.1v-23.4h4.1v9.3h10.7v-9.3h4.1V736.9z"/>
	<path fill="#FFFFFF" d="M1668.1,728.4c0,5.5-3.3,9-8.5,9c-5.3,0-8.6-3.5-8.6-9c0-5.5,3.4-9,8.6-9
		C1664.8,719.4,1668.1,722.9,1668.1,728.4z M1654.7,728.4c0,3.8,1.8,6.1,4.8,6.1c3,0,4.7-2.3,4.7-6.1c0-3.7-1.8-6-4.8-6
		C1656.6,722.4,1654.7,724.7,1654.7,728.4z"/>
	<path fill="#FFFFFF" d="M1680.1,736.9h-8.9v-17h9.4c3.2,0,5,1.5,5,4.1c0,1.9-0.8,2.8-2.4,3.6v0.1c2.1,0.6,3.2,2.1,3.2,4.4
		C1686.4,735.2,1684.2,736.9,1680.1,736.9z M1675,722.8v3.9h4.8c1.4,0,2.2-0.7,2.2-2c0-1.3-0.7-1.9-2.3-1.9H1675z M1675,729.4v4.7
		h5.2c1.6,0,2.5-0.8,2.5-2.3c0-1.5-0.9-2.4-2.5-2.4H1675z"/>
	<path fill="#FFFFFF" d="M1696.8,719.4c4,0,7,1.5,7,5.1v8.6c0,1,0.2,1.3,0.9,1.3c0.3,0,0.4,0,0.9-0.1v2.6c-1.2,0.3-1.7,0.4-2.4,0.4
		c-1.4,0-2.5-0.6-2.8-2c-1.5,1.5-3.7,2-6,2c-3.5,0-5.7-1.9-5.7-5.1c0-4.5,4.2-4.9,7.6-5.4c2.6-0.3,3.4-0.5,3.7-1
		c0.2-0.2,0.2-0.6,0.2-1.2c0-1.7-1.1-2.6-3.5-2.6c-2.4,0-3.5,0.8-3.8,3h-3.6C1689.8,721,1692.6,719.4,1696.8,719.4z M1696.2,729.3
		c-1.7,0.3-3.7,0.6-3.7,2.8c0,1.6,1.1,2.5,3.1,2.5c1.5,0,3-0.5,3.8-1.3c0.8-0.8,0.8-1.9,0.8-2.9v-2
		C1698.9,729.1,1697.5,729.1,1696.2,729.3z"/>
	<path fill="#FFFFFF" d="M1718.4,736.9v-6.8h-3.2l-5.2,6.8h-4.4l5.7-7.3c-3-1-3.6-2.9-3.6-5c0-3,2-4.7,5.6-4.7h9v17H1718.4z
		 M1718.4,722.8h-4.5c-1.7,0-2.5,0.7-2.5,2.2c0,1.5,0.9,2.4,2.5,2.4h4.6V722.8z"/>
	<path fill="#FFFFFF" d="M1754.6,736.9h-4.1V717h-10.7v19.9h-4.1v-23.4h18.9V736.9z"/>
	<path fill="#FFFFFF" d="M1775.3,728.4c0,5.5-3.3,9-8.5,9c-5.3,0-8.6-3.5-8.6-9c0-5.5,3.4-9,8.6-9
		C1772,719.4,1775.3,722.9,1775.3,728.4z M1762,728.4c0,3.8,1.8,6.1,4.8,6.1c3,0,4.7-2.3,4.7-6.1c0-3.7-1.8-6-4.8-6
		C1763.8,722.4,1762,724.7,1762,728.4z"/>
	<path fill="#FFFFFF" d="M1783,730.6c-3.4,0-5.4-1.8-5.4-5.1v-5.6h3.7v4.3c0,2.2,1,3.2,3.1,3.2c1.3,0,3.2-0.5,4-0.8v-6.7h3.7v17
		h-3.7v-7.2C1787.5,730,1785.1,730.6,1783,730.6z"/>
	<path fill="#FFFFFF" d="M1803.7,722.9v14h-3.7v-14h-5.6v-3h14.9v3H1803.7z"/>
	<path fill="#FFFFFF" d="M1818.1,719.4c4,0,7,1.5,7,5.1v8.6c0,1,0.2,1.3,0.9,1.3c0.3,0,0.4,0,0.9-0.1v2.6c-1.2,0.3-1.7,0.4-2.4,0.4
		c-1.4,0-2.5-0.6-2.8-2c-1.5,1.5-3.7,2-6,2c-3.5,0-5.7-1.9-5.7-5.1c0-4.5,4.2-4.9,7.6-5.4c2.6-0.3,3.4-0.5,3.7-1
		c0.2-0.2,0.2-0.6,0.2-1.2c0-1.7-1.1-2.6-3.5-2.6c-2.4,0-3.5,0.8-3.8,3h-3.6C1811.1,721,1813.9,719.4,1818.1,719.4z M1817.5,729.3
		c-1.7,0.3-3.7,0.6-3.7,2.8c0,1.6,1.1,2.5,3.1,2.5c1.5,0,3-0.5,3.8-1.3c0.8-0.8,0.8-1.9,0.8-2.9v-2
		C1820.2,729.1,1818.8,729.1,1817.5,729.3z"/>
	<path fill="#FFFFFF" d="M1833.9,735.8c0,3.2-1,5.5-4.5,6.2v-2c1.4-0.4,2.1-1.4,2.1-3.2h-2.1v-4.4h4.5V735.8z"/>
	<path fill="#FFFFFF" d="M1852,736.9h-4.1v-23.4h4.1V736.9z"/>
	<path fill="#FFFFFF" d="M1860.1,722.4c1.4-2,3.1-3,5.6-3c3.9,0,5.8,2.3,5.8,6.1v11.3h-3.7V727c0-2.3-0.3-4.4-3.3-4.4
		c-2.3,0-4.1,1.3-4.1,5.2v9.1h-3.7v-17h3.6V722.4z"/>
	<path fill="#FFFFFF" d="M1883.7,722.7h-3.4v8.9c0,1.6,0,2.4,1.9,2.4c0.5,0,0.9,0,1.5-0.1v3c-1.1,0.1-1.6,0.1-2.5,0.1
		c-4.9,0-4.6-2.5-4.6-6.3v-8.1h-2.8v-2.7h2.8v-5.1h3.7v5.1h3.4V722.7z"/>
	<path fill="#FFFFFF" d="M1890.2,717.1h-3.7v-3.7h3.7V717.1z M1890.2,736.9h-3.7v-17h3.7V736.9z"/>
	<path fill="#FFFFFF" d="M1897.8,722.3c1.3-1.8,3-2.9,5.3-2.9c2.2,0,3.9,1,4.7,2.9c1.3-1.9,3.1-2.9,5.5-2.9c3.1,0,5.6,1.9,5.6,5.4
		v12h-3.7v-10.4c0-2.1-0.4-3.8-3-3.8c-2.5,0-3.7,1.6-3.7,4.3v10h-3.7v-10.6c0-2-0.3-3.6-2.8-3.6c-2.6,0-3.9,1.9-3.9,4.5v9.8h-3.7
		v-17h3.6V722.3z"/>
	<path fill="#FFFFFF" d="M1930.4,737.5c-5.2,0-8.4-3.8-8.4-8.8c0-5.3,3.5-9.2,8.2-9.2c5,0,8.1,3.6,8.1,9.5v0.4h-12.5
		c0.1,3.4,1.8,5.4,4.7,5.4c2.1,0,3.3-0.9,4-3.1h3.6C1937.2,735.3,1934.2,737.5,1930.4,737.5z M1930.2,722.2c-2.5,0-4,1.6-4.4,4.6
		h8.7C1934.3,724,1932.7,722.2,1930.2,722.2z"/>
	<path fill="#FFFFFF" d="M1946,735.8c0,3.2-1,5.5-4.5,6.2v-2c1.4-0.4,2.1-1.4,2.1-3.2h-2.1v-4.4h4.5V735.8z"/>
	<path fill="#FFFFFF" d="M1632.8,752.9c2.9,0,5.4,0.4,7.7,2.4s3.5,5.2,3.5,8.9c0,3.5-0.8,7-3.3,9.5c-1.9,1.9-3.9,2.6-7.6,2.6h-9.1
		v-23.4H1632.8z M1628,772.9h4.8c5.5,0,7-3.6,7-8.4s-2.1-8-7.3-8h-4.6V772.9z"/>
	<path fill="#FFFFFF" d="M1654.6,776.9c-5.2,0-8.4-3.8-8.4-8.8c0-5.3,3.5-9.2,8.2-9.2c5,0,8.1,3.6,8.1,9.5v0.4H1650
		c0.1,3.4,1.8,5.4,4.7,5.4c2.1,0,3.3-0.9,4-3.1h3.6C1661.5,774.8,1658.4,776.9,1654.6,776.9z M1654.5,761.7c-2.5,0-4,1.6-4.4,4.6
		h8.7C1658.6,763.4,1656.9,761.7,1654.5,761.7z"/>
	<path fill="#FFFFFF" d="M1669.3,776.4h-3.7v-23.4h3.7V776.4z"/>
	<path fill="#FFFFFF" d="M1677.2,756.5h-3.7v-3.7h3.7V756.5z M1677.2,776.4h-3.7v-17h3.7V776.4z"/>
	<path fill="#FFFFFF" d="M1683.6,759.4l4.3,13.1l4.2-13.1h3.9l-6.1,17h-4.2l-6.2-17H1683.6z"/>
	<path fill="#FFFFFF" d="M1705.8,776.9c-5.2,0-8.4-3.8-8.4-8.8c0-5.3,3.5-9.2,8.2-9.2c5,0,8.1,3.6,8.1,9.5v0.4h-12.5
		c0.1,3.4,1.8,5.4,4.7,5.4c2.1,0,3.3-0.9,4-3.1h3.6C1712.7,774.8,1709.6,776.9,1705.8,776.9z M1705.7,761.7c-2.5,0-4,1.6-4.4,4.6
		h8.7C1709.8,763.4,1708.1,761.7,1705.7,761.7z"/>
	<path fill="#FFFFFF" d="M1726.2,762.6c-0.7-0.1-0.9-0.1-1.3-0.1c-3.7,0-4.9,2.8-4.9,6.3v7.5h-3.7v-17h3.5v3.4
		c1.1-2.3,3-3.8,5.7-3.8c0.2,0,0.4,0,0.7,0.1V762.6z"/>
	<path fill="#FFFFFF" d="M1736.9,776c-1.2,3.3-2.1,6.8-6.3,6.8c-0.8,0-1.3,0-2.6-0.2v-3.2c1,0.2,1.5,0.2,2,0.2
		c1.9,0,2.4-2.4,2.9-3.8l-6.5-16.5h4.1l4.5,12.5l4.3-12.5h3.9L1736.9,776z"/>
	<path fill="#FFFFFF" d="M1747.1,775.3c0,3.2-1,5.5-4.5,6.2v-2c1.4-0.4,2.1-1.4,2.1-3.2h-2.1v-4.4h4.5V775.3z"/>
	<path fill="#FFFFFF" d="M1768.1,776.8c-5.2,0-8.4-3.6-8.4-8.7c0-5.6,3.3-9.2,8.4-9.2c4.3,0,7.1,2.3,7.6,6.2h-3.7
		c-0.4-2.1-1.8-3.3-3.8-3.3c-2.9,0-4.7,2.3-4.7,6.1c0,3.7,1.7,6,4.5,6c2.2,0,3.7-1.4,4.1-3.9h3.7
		C1775.4,774.1,1772.3,776.8,1768.1,776.8z"/>
	<path fill="#FFFFFF" d="M1786.1,758.9c4,0,7,1.5,7,5.1v8.6c0,1,0.2,1.3,0.9,1.3c0.3,0,0.4,0,0.9-0.1v2.6c-1.2,0.3-1.7,0.4-2.4,0.4
		c-1.4,0-2.5-0.6-2.8-2c-1.5,1.5-3.7,2-6,2c-3.5,0-5.7-1.9-5.7-5.1c0-4.5,4.2-4.9,7.6-5.4c2.6-0.3,3.4-0.5,3.7-1
		c0.2-0.2,0.2-0.6,0.2-1.2c0-1.7-1.1-2.6-3.5-2.6c-2.4,0-3.5,0.8-3.8,3h-3.6C1779.1,760.4,1781.9,758.9,1786.1,758.9z M1785.5,768.8
		c-1.7,0.3-3.7,0.6-3.7,2.8c0,1.6,1.1,2.5,3.1,2.5c1.5,0,3-0.5,3.8-1.3c0.8-0.8,0.8-1.9,0.8-2.9v-2
		C1788.2,768.5,1786.8,768.6,1785.5,768.8z"/>
	<path fill="#FFFFFF" d="M1797.1,776.4v-17h4.9l4.7,13.5h0.1l4.6-13.5h4.9v17h-3.6v-11.3h-0.1l-4,11.3h-3.8l-4-11.3h-0.1v11.3
		H1797.1z"/>
	<path fill="#FFFFFF" d="M1836.6,767.9c0,5.5-3.3,9-8.5,9c-5.3,0-8.6-3.5-8.6-9c0-5.5,3.4-9,8.6-9
		C1833.3,758.9,1836.6,762.4,1836.6,767.9z M1823.2,767.9c0,3.8,1.8,6.1,4.8,6.1c3,0,4.7-2.3,4.7-6.1c0-3.7-1.8-6-4.8-6
		C1825.1,761.9,1823.2,764.2,1823.2,767.9z"/>
	<path fill="#FFFFFF" d="M1848.6,776.4h-8.9v-17h9.4c3.2,0,5,1.5,5,4.1c0,1.9-0.8,2.8-2.4,3.6v0.1c2.1,0.6,3.2,2.1,3.2,4.4
		C1854.9,774.6,1852.6,776.4,1848.6,776.4z M1843.5,762.2v3.9h4.8c1.4,0,2.2-0.7,2.2-2c0-1.3-0.7-1.9-2.3-1.9H1843.5z M1843.5,768.9
		v4.7h5.2c1.6,0,2.5-0.8,2.5-2.3c0-1.5-0.9-2.4-2.5-2.4H1843.5z"/>
	<path fill="#FFFFFF" d="M1866.1,776.4h-8.3v-17h3.7v6.1h4.5c3.7,0,5.8,2.1,5.8,5.4C1871.9,774.3,1869.8,776.4,1866.1,776.4z
		 M1865.6,768.5h-4v5h4.1c1.7,0,2.4-1.1,2.4-2.4C1868.1,769.5,1867.2,768.5,1865.6,768.5z M1878,759.4v17h-3.7v-17H1878z"/>
	<path fill="#FFFFFF" d="M1890.7,776.4h-8.9v-17h9.4c3.2,0,5,1.5,5,4.1c0,1.9-0.8,2.8-2.4,3.6v0.1c2.1,0.6,3.2,2.1,3.2,4.4
		C1896.9,774.6,1894.7,776.4,1890.7,776.4z M1885.5,762.2v3.9h4.8c1.4,0,2.2-0.7,2.2-2c0-1.3-0.7-1.9-2.3-1.9H1885.5z M1885.5,768.9
		v4.7h5.2c1.6,0,2.5-0.8,2.5-2.3c0-1.5-0.9-2.4-2.5-2.4H1885.5z"/>
	<path fill="#FFFFFF" d="M1916.4,767.9c0,5.5-3.3,9-8.5,9c-5.3,0-8.6-3.5-8.6-9c0-5.5,3.4-9,8.6-9
		C1913.1,758.9,1916.4,762.4,1916.4,767.9z M1903,767.9c0,3.8,1.8,6.1,4.8,6.1c3,0,4.7-2.3,4.7-6.1c0-3.7-1.8-6-4.8-6
		C1904.9,761.9,1903,764.2,1903,767.9z"/>
	<path fill="#FFFFFF" d="M1926.2,776.8c-4.9,0-7.5-2.2-7.7-5.8h3.8c0.3,2.3,2.2,2.9,3.8,2.9c2.1,0,3.5-0.9,3.5-2.5
		c0-1.4-0.7-2.5-3.3-2.5h-2.1v-2.8h1.5c2,0,3.4-0.5,3.4-2.2c0-1.2-0.9-2.1-3.1-2.1c-2,0-2.9,1.1-3.3,2.5h-3.8c0.4-4.3,4-5.4,7.4-5.4
		c3.5,0,6.4,1.2,6.4,4.6c0,1.9-1.3,3.3-2.7,3.6v0.1c1.6,0.3,3.3,1.6,3.3,4.2C1933.4,775,1929.8,776.8,1926.2,776.8z"/>
	<path fill="#FFFFFF" d="M1937.4,782.6h-3c2.6-4.6,4-9.5,4-14.8c0-6.1-1.5-10.4-4-15.1h3c3.2,4.6,4.7,10.1,4.7,15.1
		C1942.1,773.9,1940.2,778,1937.4,782.6z"/>
</g>
<g>
	<path fill="#FFFFFF" d="M25.3,804.8c5.1,0,7.6,2.4,7.6,5.9c0,2.3-1.4,4.1-3.4,4.9c2.7,0.7,4.4,2.7,4.4,5.7c0,4.1-3,6.9-7.4,6.9
		H14.6v-23.4H25.3z M18.6,814.6h5.6c3.1,0,4.6-0.9,4.6-3.2c0-2.9-2.1-3.2-4.5-3.2h-5.7V814.6z M18.6,824.9h6.1
		c2.8,0,5.1-0.7,5.1-3.6c0-3.2-2.5-3.7-5.1-3.7h-6.1V824.9z"/>
	<path fill="#FFFFFF" d="M45.4,828.2h-8.3v-17h3.7v6.1h4.5c3.7,0,5.8,2.1,5.8,5.4C51.2,826.1,49.1,828.2,45.4,828.2z M44.9,820.3h-4
		v5H45c1.7,0,2.4-1.1,2.4-2.4C47.4,821.4,46.6,820.3,44.9,820.3z M57.3,811.2v17h-3.7v-17H57.3z"/>
	<path fill="#FFFFFF" d="M86.5,819.7c0,5.5-3.3,9-8.5,9c-5.3,0-8.6-3.5-8.6-9c0-5.5,3.4-9,8.6-9C83.2,810.8,86.5,814.2,86.5,819.7z
		 M73.2,819.7c0,3.8,1.8,6.1,4.8,6.1c3,0,4.7-2.3,4.7-6.1c0-3.7-1.8-6-4.8-6C75,813.7,73.2,816,73.2,819.7z"/>
	<path fill="#FFFFFF" d="M97.3,828.6c-5.2,0-8.4-3.6-8.4-8.7c0-5.6,3.3-9.2,8.4-9.2c4.3,0,7.1,2.3,7.6,6.2h-3.7
		c-0.4-2.1-1.8-3.3-3.8-3.3c-2.9,0-4.7,2.3-4.7,6.1c0,3.7,1.7,6,4.5,6c2.2,0,3.7-1.4,4.1-3.9h3.7C104.6,826,101.5,828.6,97.3,828.6z
		"/>
	<path fill="#FFFFFF" d="M115.1,814.2v14h-3.7v-14h-5.6v-3h14.9v3H115.1z"/>
	<path fill="#FFFFFF" d="M129.5,810.7c4,0,7,1.5,7,5.1v8.6c0,1,0.2,1.3,0.9,1.3c0.3,0,0.4,0,0.9-0.1v2.6c-1.2,0.3-1.7,0.4-2.4,0.4
		c-1.4,0-2.5-0.6-2.8-2c-1.5,1.5-3.7,2-6,2c-3.5,0-5.7-1.9-5.7-5.1c0-4.5,4.2-4.9,7.6-5.4c2.6-0.3,3.4-0.5,3.7-1
		c0.2-0.2,0.2-0.6,0.2-1.2c0-1.7-1.1-2.6-3.5-2.6c-2.4,0-3.5,0.8-3.8,3h-3.6C122.5,812.3,125.4,810.7,129.5,810.7z M128.9,820.6
		c-1.7,0.3-3.7,0.6-3.7,2.8c0,1.6,1.1,2.5,3.1,2.5c1.5,0,3-0.5,3.8-1.3c0.8-0.8,0.8-1.9,0.8-2.9v-2
		C131.7,820.4,130.3,820.4,128.9,820.6z"/>
	<path fill="#FFFFFF" d="M149.4,828.2h-8.9v-17h9.4c3.2,0,5,1.5,5,4.1c0,1.9-0.8,2.8-2.4,3.6v0.1c2.1,0.6,3.2,2.1,3.2,4.4
		C155.7,826.5,153.5,828.2,149.4,828.2z M144.3,814.1v3.9h4.8c1.4,0,2.2-0.7,2.2-2c0-1.3-0.7-1.9-2.3-1.9H144.3z M144.3,820.7v4.7
		h5.2c1.6,0,2.5-0.8,2.5-2.3c0-1.5-0.9-2.4-2.5-2.4H144.3z"/>
	<path fill="#FFFFFF" d="M169.5,828.2v-14h-5.2l-0.2,7.4c-0.1,4.4-2,7-5.1,7c-0.8,0-1.8-0.2-2.3-0.4v-2.9c0.3,0.1,1,0.2,1.3,0.2
		c1.1,0,2.3-0.8,2.4-4.2l0.3-10h12.5v17H169.5z"/>
	<path fill="#FFFFFF" d="M187.7,828.2v-6.8h-3.2l-5.2,6.8h-4.4l5.7-7.3c-3-1-3.6-2.9-3.6-5c0-3,2-4.7,5.6-4.7h9v17H187.7z
		 M187.7,814.1h-4.5c-1.7,0-2.5,0.7-2.5,2.2c0,1.5,0.9,2.4,2.5,2.4h4.6V814.1z"/>
	<path fill="#FFFFFF" d="M202.9,828.8c-5.2,0-8.4-3.8-8.4-8.8c0-5.3,3.5-9.2,8.2-9.2c5,0,8.1,3.6,8.1,9.5v0.4h-12.5
		c0.1,3.4,1.8,5.4,4.7,5.4c2.1,0,3.3-0.9,4-3.1h3.6C209.7,826.6,206.7,828.8,202.9,828.8z M202.7,813.5c-2.5,0-4,1.6-4.4,4.6h8.7
		C206.8,815.3,205.2,813.5,202.7,813.5z"/>
	<path fill="#FFFFFF" d="M220.8,814.2v14h-3.7v-14h-5.6v-3h14.9v3H220.8z"/>
	<path fill="#FFFFFF" d="M235.4,828.8c-5.2,0-8.4-3.8-8.4-8.8c0-5.3,3.5-9.2,8.2-9.2c5,0,8.1,3.6,8.1,9.5v0.4h-12.5
		c0.1,3.4,1.8,5.4,4.7,5.4c2.1,0,3.3-0.9,4-3.1h3.6C242.3,826.6,239.2,828.8,235.4,828.8z M235.3,813.5c-2.5,0-4,1.6-4.4,4.6h8.7
		C239.4,815.3,237.7,813.5,235.3,813.5z"/>
	<path fill="#FFFFFF" d="M262,828.7c-4.9,0-7.5-2.2-7.7-5.8h3.8c0.3,2.3,2.2,2.9,3.8,2.9c2.1,0,3.5-0.9,3.5-2.5
		c0-1.4-0.7-2.5-3.3-2.5h-2.1V818h1.5c2,0,3.4-0.5,3.4-2.2c0-1.2-0.9-2.1-3.1-2.1c-2,0-2.9,1.1-3.3,2.5h-3.8c0.4-4.3,4-5.4,7.4-5.4
		c3.5,0,6.4,1.2,6.4,4.6c0,1.9-1.3,3.3-2.7,3.6v0.1c1.6,0.3,3.3,1.6,3.3,4.2C269.2,826.9,265.6,828.7,262,828.7z"/>
	<path fill="#FFFFFF" d="M279.7,810.7c4,0,7,1.5,7,5.1v8.6c0,1,0.2,1.3,0.9,1.3c0.3,0,0.4,0,0.9-0.1v2.6c-1.2,0.3-1.7,0.4-2.4,0.4
		c-1.4,0-2.5-0.6-2.8-2c-1.5,1.5-3.7,2-6,2c-3.5,0-5.7-1.9-5.7-5.1c0-4.5,4.2-4.9,7.6-5.4c2.6-0.3,3.4-0.5,3.7-1
		c0.2-0.2,0.2-0.6,0.2-1.2c0-1.7-1.1-2.6-3.5-2.6c-2.4,0-3.5,0.8-3.8,3h-3.6C272.7,812.3,275.6,810.7,279.7,810.7z M279.1,820.6
		c-1.7,0.3-3.7,0.6-3.7,2.8c0,1.6,1.1,2.5,3.1,2.5c1.5,0,3-0.5,3.8-1.3c0.8-0.8,0.8-1.9,0.8-2.9v-2
		C281.8,820.4,280.5,820.4,279.1,820.6z"/>
	<path fill="#FFFFFF" d="M301.3,828.2v-6.8h-3.2l-5.2,6.8h-4.4l5.7-7.3c-3-1-3.6-2.9-3.6-5c0-3,2-4.7,5.6-4.7h9v17H301.3z
		 M301.3,814.1h-4.5c-1.7,0-2.5,0.7-2.5,2.2c0,1.5,0.9,2.4,2.5,2.4h4.6V814.1z"/>
	<path fill="#FFFFFF" d="M317.9,828.2H309v-17h9.4c3.2,0,5,1.5,5,4.1c0,1.9-0.8,2.8-2.4,3.6v0.1c2.1,0.6,3.2,2.1,3.2,4.4
		C324.2,826.5,321.9,828.2,317.9,828.2z M312.7,814.1v3.9h4.8c1.4,0,2.2-0.7,2.2-2c0-1.3-0.7-1.9-2.3-1.9H312.7z M312.7,820.7v4.7
		h5.2c1.6,0,2.5-0.8,2.5-2.3c0-1.5-0.9-2.4-2.5-2.4H312.7z"/>
	<path fill="#FFFFFF" d="M338.6,828.2l-5.3-7.6L331,823v5.3h-3.7v-17h3.7v7.5l6.8-7.5h4.6l-6.6,6.8l7.4,10.2H338.6z"/>
	<path fill="#FFFFFF" d="M353.6,827.9c-1.2,3.3-2.1,6.8-6.3,6.8c-0.8,0-1.3,0-2.6-0.2v-3.2c1,0.2,1.5,0.2,2,0.2
		c1.9,0,2.4-2.4,2.9-3.8l-6.5-16.5h4.1l4.5,12.5l4.3-12.5h3.9L353.6,827.9z"/>
</g>
<g>
	<path fill="#FFFFFF" d="M1104.5,804.8c5.1,0,7.6,2.4,7.6,5.9c0,2.3-1.4,4.1-3.4,4.9c2.7,0.7,4.4,2.7,4.4,5.7c0,4.1-3,6.9-7.4,6.9
		h-11.9v-23.4H1104.5z M1097.8,814.6h5.6c3.1,0,4.6-0.9,4.6-3.2c0-2.9-2.1-3.2-4.5-3.2h-5.7V814.6z M1097.8,824.9h6.1
		c2.8,0,5.1-0.7,5.1-3.6c0-3.2-2.5-3.7-5.1-3.7h-6.1V824.9z"/>
	<path fill="#FFFFFF" d="M1124.6,828.2h-8.3v-17h3.7v6.1h4.5c3.7,0,5.8,2.1,5.8,5.4C1130.4,826.1,1128.3,828.2,1124.6,828.2z
		 M1124.1,820.3h-4v5h4.1c1.7,0,2.4-1.1,2.4-2.4C1126.6,821.4,1125.7,820.3,1124.1,820.3z M1136.5,811.2v17h-3.7v-17H1136.5z"/>
	<path fill="#FFFFFF" d="M1148.4,828.7c-3.6,0-6.4-1.5-7.7-4.7c-0.6-1.4-0.9-3.2-0.9-5.4c0-3.3,0.5-7.4,2.1-10
		c1.5-2.3,3.6-3.3,6.8-3.6c2.1-0.2,3-0.1,3.4-0.9h3.7c-0.7,4-3.8,3.8-7.6,4.1c-3.3,0.3-5.1,2.9-6,6.4h0.1c1.3-2.2,3.1-3.5,6.3-3.5
		c4.3,0,7.7,3.4,7.7,8.7C1156.5,825.2,1153.3,828.7,1148.4,828.7z M1148.2,814.2c-2.7,0-4.6,2.2-4.6,5.8c0,3.5,1.9,5.8,4.6,5.8
		c2.7,0,4.6-2.3,4.6-5.8C1152.8,816.4,1150.9,814.2,1148.2,814.2z"/>
	<path fill="#FFFFFF" d="M1159.7,828.2v-17h3.7v12.4h0.1l6.3-12.4h4.7v17h-3.7v-12.4h-0.1l-6.3,12.4H1159.7z"/>
	<path fill="#FFFFFF" d="M1182.2,813.5c1.2-1.9,3.3-2.8,5.5-2.8c4.7,0,7.7,3.6,7.7,9c0,5.4-3,8.8-7.5,8.8c-2.3,0-4.2-0.8-5.5-2.7
		v8.5h-3.7v-23.2h3.5V813.5z M1182.3,819.7c0,3.7,1.8,5.9,4.8,5.9c2.9,0,4.6-2.2,4.6-5.9c0-3.7-1.8-6-4.7-6
		C1184,813.8,1182.3,816,1182.3,819.7z"/>
	<path fill="#FFFFFF" d="M1206,810.7c4,0,7,1.5,7,5.1v8.6c0,1,0.2,1.3,0.9,1.3c0.3,0,0.4,0,0.9-0.1v2.6c-1.2,0.3-1.7,0.4-2.4,0.4
		c-1.4,0-2.5-0.6-2.8-2c-1.5,1.5-3.7,2-6,2c-3.5,0-5.7-1.9-5.7-5.1c0-4.5,4.2-4.9,7.6-5.4c2.6-0.3,3.4-0.5,3.7-1
		c0.2-0.2,0.2-0.6,0.2-1.2c0-1.7-1.1-2.6-3.5-2.6c-2.4,0-3.5,0.8-3.8,3h-3.6C1199,812.3,1201.8,810.7,1206,810.7z M1205.4,820.6
		c-1.7,0.3-3.7,0.6-3.7,2.8c0,1.6,1.1,2.5,3.1,2.5c1.5,0,3-0.5,3.8-1.3c0.8-0.8,0.8-1.9,0.8-2.9v-2
		C1208.1,820.4,1206.7,820.4,1205.4,820.6z"/>
	<path fill="#FFFFFF" d="M1224.5,828.8c-5.2,0-8.4-3.8-8.4-8.8c0-5.3,3.5-9.2,8.2-9.2c5,0,8.1,3.6,8.1,9.5v0.4h-12.5
		c0.1,3.4,1.8,5.4,4.7,5.4c2.1,0,3.3-0.9,4-3.1h3.6C1231.3,826.6,1228.3,828.8,1224.5,828.8z M1224.3,813.5c-2.5,0-4,1.6-4.4,4.6
		h8.7C1228.4,815.3,1226.8,813.5,1224.3,813.5z"/>
	<path fill="#FFFFFF" d="M1242.4,814.2v14h-3.7v-14h-5.6v-3h14.9v3H1242.4z"/>
	<path fill="#FFFFFF" d="M1257,828.8c-5.2,0-8.4-3.8-8.4-8.8c0-5.3,3.5-9.2,8.2-9.2c5,0,8.1,3.6,8.1,9.5v0.4h-12.5
		c0.1,3.4,1.8,5.4,4.7,5.4c2.1,0,3.3-0.9,4-3.1h3.6C1263.9,826.6,1260.8,828.8,1257,828.8z M1256.9,813.5c-2.5,0-4,1.6-4.4,4.6h8.7
		C1261,815.3,1259.3,813.5,1256.9,813.5z"/>
	<path fill="#FFFFFF" d="M1285.6,827.9c-1.2,3.3-2.1,6.8-6.3,6.8c-0.8,0-1.3,0-2.6-0.2v-3.2c1,0.2,1.5,0.2,2,0.2
		c1.9,0,2.4-2.4,2.9-3.8l-6.5-16.5h4.1l4.5,12.5l4.3-12.5h3.9L1285.6,827.9z"/>
	<path fill="#FFFFFF" d="M1307.3,833.6v-5.4h-12.1v5.4h-3.6v-8.4h2.1c1.2-2.9,2-6.5,2-12.1v-1.9h12.8v14h2.3v8.4H1307.3z
		 M1304.9,814.1h-5.5v1.2c0,3.9-1.1,8.3-1.7,10h7.2V814.1z"/>
	<path fill="#FFFFFF" d="M1329.5,819.7c0,5.5-3.3,9-8.5,9c-5.3,0-8.6-3.5-8.6-9c0-5.5,3.4-9,8.6-9
		C1326.2,810.8,1329.5,814.2,1329.5,819.7z M1316.2,819.7c0,3.8,1.8,6.1,4.8,6.1c3,0,4.7-2.3,4.7-6.1c0-3.7-1.8-6-4.8-6
		S1316.2,816,1316.2,819.7z"/>
	<path fill="#FFFFFF" d="M1340.8,828.7c-3.6,0-6.4-1.5-7.7-4.7c-0.6-1.4-0.9-3.2-0.9-5.4c0-3.3,0.5-7.4,2.1-10
		c1.5-2.3,3.6-3.3,6.8-3.6c2.1-0.2,3-0.1,3.4-0.9h3.7c-0.7,4-3.8,3.8-7.6,4.1c-3.3,0.3-5.1,2.9-6,6.4h0.1c1.3-2.2,3.1-3.5,6.3-3.5
		c4.3,0,7.7,3.4,7.7,8.7C1349,825.2,1345.7,828.7,1340.8,828.7z M1340.6,814.2c-2.7,0-4.6,2.2-4.6,5.8c0,3.5,1.9,5.8,4.6,5.8
		s4.6-2.3,4.6-5.8C1345.2,816.4,1343.4,814.2,1340.6,814.2z"/>
	<path fill="#FFFFFF" d="M1352.2,828.2v-17h3.7v6.6h7.4v-6.6h3.7v17h-3.7v-7.4h-7.4v7.4H1352.2z"/>
	<path fill="#FFFFFF" d="M1379.2,828.2h-8.3v-17h3.7v6.1h4.5c3.7,0,5.8,2.1,5.8,5.4C1384.9,826.1,1382.8,828.2,1379.2,828.2z
		 M1378.7,820.3h-4v5h4.1c1.7,0,2.4-1.1,2.4-2.4C1381.2,821.4,1380.3,820.3,1378.7,820.3z M1391,811.2v17h-3.7v-17H1391z"/>
	<path fill="#FFFFFF" d="M1394.8,828.2v-17h3.7v12.4h0.1l6.3-12.4h4.7v17h-3.7v-12.4h-0.1l-6.3,12.4H1394.8z M1402.2,808.9
		c-3.4,0-5.1-1.5-5.4-4.6h1.9c0.4,1.7,1.5,2.5,3.5,2.5s3.1-0.8,3.5-2.5h1.9C1407.3,807.4,1405.6,808.9,1402.2,808.9z"/>
	<path fill="#FFFFFF" d="M1142.3,868.1c-5.2,0-8.4-3.6-8.4-8.7c0-5.6,3.3-9.2,8.4-9.2c4.3,0,7.1,2.3,7.6,6.2h-3.7
		c-0.4-2.1-1.8-3.3-3.8-3.3c-2.9,0-4.7,2.3-4.7,6.1c0,3.7,1.7,6,4.5,6c2.2,0,3.7-1.4,4.1-3.9h3.7
		C1149.6,865.4,1146.5,868.1,1142.3,868.1z"/>
	<path fill="#FFFFFF" d="M1153,867.7v-17h14.9v17h-3.7v-14h-7.4v14H1153z"/>
	<path fill="#FFFFFF" d="M1188.2,859.2c0,5.5-3.3,9-8.5,9c-5.3,0-8.6-3.5-8.6-9c0-5.5,3.4-9,8.6-9
		C1184.9,850.2,1188.2,853.7,1188.2,859.2z M1174.8,859.2c0,3.8,1.8,6.1,4.8,6.1c3,0,4.7-2.3,4.7-6.1c0-3.7-1.8-6-4.8-6
		C1176.7,853.2,1174.8,855.5,1174.8,859.2z"/>
	<path fill="#FFFFFF" d="M1198.9,868.1c-5.2,0-8.4-3.6-8.4-8.7c0-5.6,3.3-9.2,8.4-9.2c4.3,0,7.1,2.3,7.6,6.2h-3.7
		c-0.4-2.1-1.8-3.3-3.8-3.3c-2.9,0-4.7,2.3-4.7,6.1c0,3.7,1.7,6,4.5,6c2.2,0,3.7-1.4,4.1-3.9h3.7
		C1206.2,865.4,1203.2,868.1,1198.9,868.1z"/>
	<path fill="#FFFFFF" d="M1226,859.2c0,5.5-3.3,9-8.5,9c-5.3,0-8.6-3.5-8.6-9c0-5.5,3.4-9,8.6-9C1222.7,850.2,1226,853.7,1226,859.2
		z M1212.6,859.2c0,3.8,1.8,6.1,4.8,6.1c3,0,4.7-2.3,4.7-6.1c0-3.7-1.8-6-4.8-6C1214.5,853.2,1212.6,855.5,1212.6,859.2z"/>
	<path fill="#FFFFFF" d="M1237.3,868.1c-3.6,0-6.4-1.5-7.7-4.7c-0.6-1.4-0.9-3.2-0.9-5.4c0-3.3,0.5-7.4,2.1-10
		c1.5-2.3,3.6-3.3,6.8-3.6c2.1-0.2,3-0.1,3.4-0.9h3.7c-0.7,4-3.8,3.8-7.6,4.1c-3.3,0.3-5.1,2.9-6,6.4h0.1c1.3-2.2,3.1-3.5,6.3-3.5
		c4.3,0,7.7,3.4,7.7,8.7C1245.4,864.7,1242.2,868.1,1237.3,868.1z M1237.1,853.6c-2.7,0-4.6,2.2-4.6,5.8c0,3.5,1.9,5.8,4.6,5.8
		s4.6-2.3,4.6-5.8C1241.7,855.9,1239.8,853.6,1237.1,853.6z"/>
	<path fill="#FFFFFF" d="M1274.1,859.2c0,5.5-3.3,9-8.5,9c-5.3,0-8.6-3.5-8.6-9c0-5.5,3.4-9,8.6-9
		C1270.8,850.2,1274.1,853.7,1274.1,859.2z M1260.8,859.2c0,3.8,1.8,6.1,4.8,6.1c3,0,4.7-2.3,4.7-6.1c0-3.7-1.8-6-4.8-6
		C1262.6,853.2,1260.8,855.5,1260.8,859.2z"/>
	<path fill="#FFFFFF" d="M1277.3,867.7v-17h14.9v17h-3.7v-14h-7.4v14H1277.3z"/>
	<path fill="#FFFFFF" d="M1307.4,867.7v-14h-5.2l-0.2,7.4c-0.1,4.4-2,7-5.1,7c-0.8,0-1.8-0.2-2.3-0.4v-2.9c0.3,0.1,1,0.2,1.3,0.2
		c1.1,0,2.3-0.8,2.4-4.2l0.3-10h12.5v17H1307.4z"/>
	<path fill="#FFFFFF" d="M1322.3,850.2c4,0,7,1.5,7,5.1v8.6c0,1,0.2,1.2,0.9,1.2c0.3,0,0.4,0,0.9-0.1v2.6c-1.2,0.3-1.7,0.4-2.4,0.4
		c-1.4,0-2.5-0.6-2.8-2c-1.5,1.5-3.7,2-6,2c-3.5,0-5.7-1.9-5.7-5.1c0-4.5,4.2-4.9,7.6-5.4c2.6-0.3,3.4-0.5,3.7-1
		c0.2-0.2,0.2-0.6,0.2-1.2c0-1.7-1.1-2.6-3.5-2.6c-2.4,0-3.5,0.8-3.8,3h-3.6C1315.3,851.8,1318.1,850.2,1322.3,850.2z M1321.7,860.1
		c-1.7,0.3-3.7,0.6-3.7,2.8c0,1.6,1.1,2.5,3.1,2.5c1.5,0,3-0.5,3.8-1.3c0.8-0.8,0.8-1.9,0.8-2.9v-2
		C1324.4,859.8,1323,859.9,1321.7,860.1z"/>
	<path fill="#FFFFFF" d="M1340.8,853.7v14h-3.7v-14h-5.6v-3h14.9v3H1340.8z"/>
	<path fill="#FFFFFF" d="M1356.7,867.7h-8.3v-17h3.7v6.1h4.5c3.7,0,5.8,2.1,5.8,5.4C1362.4,865.6,1360.4,867.7,1356.7,867.7z
		 M1356.2,859.8h-4v5h4.1c1.7,0,2.4-1.1,2.4-2.4C1358.7,860.8,1357.8,859.8,1356.2,859.8z M1368.5,850.7v17h-3.7v-17H1368.5z"/>
</g>
</svg>
