<?xml version="1.0" encoding="utf-8"?>
<!-- Generator: Adobe Illustrator 18.0.0, SVG Export Plug-In . SVG Version: 6.00 Build 0)  -->
<!DOCTYPE svg PUBLIC "-//W3C//DTD SVG 1.1//EN" "http://www.w3.org/Graphics/SVG/1.1/DTD/svg11.dtd">
<svg version="1.1" id="Capa_1" xmlns="http://www.w3.org/2000/svg" xmlns:xlink="http://www.w3.org/1999/xlink" x="0px" y="0px"
	 viewBox="0 0 512 512" enable-background="new 0 0 512 512" xml:space="preserve">
<g>
	<path fill="#007DB3" d="M256,0C114.6,0,0,114.6,0,256s114.6,256,256,256s256-114.6,256-256S397.4,0,256,0z M256,472
		c-119.3,0-216-96.7-216-216S136.7,40,256,40s216,96.7,216,216S375.3,472,256,472z"/>
	<g>
		<path fill="#007DB3" d="M183.2,263.8L198.5,128h124.1v29H221.3l-6.8,70.1l1.2,0.5c5.8-5.6,12.7-9.7,20.7-12
			c7.9-2.4,15.7-3.6,23.5-3.6c11,0,21.1,2.2,30.5,6.7c9.3,4.4,17.4,10.5,24.1,18.3c6.7,7.8,12.1,16.9,15.9,27.5
			c3.8,10.5,5.7,21.8,5.7,33.7c0,11-1.7,21.6-5,32c-3.5,10.3-8.7,19.3-15.4,27.5c-6.7,8-15.3,14.3-25.7,19.1
			c-10.4,4.8-22.6,7.2-36.5,7.2c-19.5,0-36.4-6.2-50.5-18.3c-14.2-12.2-23.2-30.2-26.9-53.7h32.5c2.9,13.5,8.5,24,16.6,31.5
			c8.2,7.5,17.7,11.5,28.7,11.5c7.5,0,14.3-1.5,20.4-4.5c6.2-3,11.5-7,15.9-12c4.3-5.2,7.8-11.2,10.2-18.4
			c2.5-7.1,3.6-14.7,3.6-22.8c0-8.3-1.4-15.9-4.3-22.8c-3.1-6.8-6.9-12.7-11.9-17.6c-4.9-4.9-10.6-8.8-17-11.6
			c-6.4-2.8-13-4.2-19.7-4.2c-7.5,0-14.7,1.8-21.7,5.4c-6.9,3.6-12.8,9.4-17.6,17.5H183.2z"/>
	</g>
</g>
</svg>
