<?xml version="1.0" encoding="utf-8"?>
<!-- Generator: Adobe Illustrator 18.0.0, SVG Export Plug-In . SVG Version: 6.00 Build 0)  -->
<!DOCTYPE svg PUBLIC "-//W3C//DTD SVG 1.1//EN" "http://www.w3.org/Graphics/SVG/1.1/DTD/svg11.dtd">
<svg version="1.1" id="Capa_1" xmlns="http://www.w3.org/2000/svg" xmlns:xlink="http://www.w3.org/1999/xlink" x="0px" y="0px"
	 viewBox="0 0 512 512" enable-background="new 0 0 512 512" xml:space="preserve">
<g>
	<path fill="#007DB3" d="M256,0C114.6,0,0,114.6,0,256s114.6,256,256,256s256-114.6,256-256S397.4,0,256,0z M256,472
		c-119.3,0-216-96.7-216-216S136.7,40,256,40s216,96.7,216,216S375.3,472,256,472z"/>
	<g>
		<path fill="#007DB3" d="M302.9,193.7c0-4.4-1-8.8-3.3-13.2c-2.2-4.4-5.1-8.4-8.7-11.9c-3.5-3.5-7.9-6.4-13-8.6
			c-5.1-2.2-10.5-3.3-16.3-3.3c-10.3,0-18.5,2.5-24.9,7.5c-6.3,5-11.4,11.5-15.1,19.6c-3.7,8.1-6.3,17.1-7.9,27.1
			c-1.5,10-2.4,19.8-2.7,29.5h1.3c14.3-14.7,29.8-22,46.6-22c10.7,0,20.8,2,30.3,6.2c9.4,4.1,17.6,9.9,24.5,17.2
			c7,7.3,12.4,16.1,16.4,26.4c4,10.3,5.9,21.4,5.9,33.4c0,11.2-1.8,21.9-5.4,31.9c-3.5,10-8.7,18.6-15.3,26.1
			c-6.6,7.5-14.6,13.5-24.1,17.9c-9.4,4.3-20.1,6.5-31.9,6.5c-12.7,0-24.1-2.6-34.5-7.9c-10.3-5.3-19-12.8-26.2-22.6
			c-7.2-9.9-12.7-21.9-16.7-36c-4-14-6-30.1-6-48c0-25.6,2-47.4,6-65.5c4-18,9.7-32.6,17.2-43.8c7.5-11.1,16.4-19.3,26.9-24.4
			c10.5-5.1,22.2-7.7,35.2-7.7c10.2,0,19.7,1.8,28.4,5.5c8.7,3.7,16.2,8.6,22.3,14.8c6.1,6.2,11.2,13.2,15,21.1
			c3.6,8,5.7,16.1,6.4,24.3L302.9,193.7L302.9,193.7z M259.1,355.5c14.8,0,25.9-5.2,33-15.2c7.2-10.2,10.8-22.7,10.8-37.7
			c0-7.3-0.9-14.3-2.6-20.9c-1.8-6.6-4.6-12.5-8.4-17.6c-3.6-5.1-8.2-9.3-13.6-12.4c-5.4-3.1-11.6-4.6-18.8-4.6
			c-8.8,0-16.3,1.8-22.3,5.3c-6.1,3.5-11,8-14.8,13.5c-3.7,5.4-6.3,11.4-7.8,17.8c-1.5,6.5-2.3,12.8-2.3,19c0,16,4.2,28.7,12.8,38.4
			C233.7,350.5,245,355.5,259.1,355.5z"/>
	</g>
</g>
</svg>
