<?xml version="1.0" encoding="utf-8"?>
<!-- Generator: Adobe Illustrator 18.0.0, SVG Export Plug-In . SVG Version: 6.00 Build 0)  -->
<!DOCTYPE svg PUBLIC "-//W3C//DTD SVG 1.1//EN" "http://www.w3.org/Graphics/SVG/1.1/DTD/svg11.dtd">
<svg version="1.1" id="Capa_1" xmlns="http://www.w3.org/2000/svg" xmlns:xlink="http://www.w3.org/1999/xlink" x="0px" y="0px"
	 viewBox="750 0 1000 1000" enable-background="new 750 0 1000 1000" xml:space="preserve">
<g>
	<path fill="#007DB3" d="M1250,0C973.8,0,750,223.8,750,500s223.8,500,500,500s500-223.8,500-500S1526.2,0,1250,0z M1250,921.9
		c-233,0-421.9-188.9-421.9-421.9S1017,78.1,1250,78.1S1671.9,267,1671.9,500S1483,921.9,1250,921.9z"/>
	<g>
		<path fill="#5AAF00" d="M1513.9,282.6l-15.3-13.1c-25.4-21.8-63.5-19.4-85.9,5.5l-255.6,283.4l-77.2-66.5
			c-25.3-21.8-63.5-19.4-85.9,5.4l-13.5,14.9c-11,12.1-16.6,28.1-15.8,44.4c0.8,16.3,8.1,31.6,20.2,42.6l141.4,129.5
			c12.2,11.5,28.7,17.5,45.4,16.6c16.8-0.9,32.5-8.6,43.4-21.3l305.1-354.6c10.7-12.4,16-28.5,14.7-44.8
			C1533.9,308.4,1526.3,293.2,1513.9,282.6z"/>
	</g>
</g>
</svg>
