<?xml version="1.0" encoding="utf-8"?>
<!-- Generator: Adobe Illustrator 18.0.0, SVG Export Plug-In . SVG Version: 6.00 Build 0)  -->
<!DOCTYPE svg PUBLIC "-//W3C//DTD SVG 1.1//EN" "http://www.w3.org/Graphics/SVG/1.1/DTD/svg11.dtd">
<svg version="1.1" id="Capa_1" xmlns="http://www.w3.org/2000/svg" xmlns:xlink="http://www.w3.org/1999/xlink" x="0px" y="0px"
	 viewBox="0 0 512 512" enable-background="new 0 0 512 512" xml:space="preserve">
<g>
	<path fill="#007DB3" d="M256,0C114.6,0,0,114.6,0,256s114.6,256,256,256s256-114.6,256-256S397.4,0,256,0z M256,472
		c-119.3,0-216-96.7-216-216S136.7,40,256,40s216,96.7,216,216S375.3,472,256,472z"/>
	<g>
		<path fill="#007DB3" d="M182.8,204.8c2.7-24.1,9.7-42.9,20.9-56.5c11.3-13.5,29-20.3,53.5-20.3c21.2,0,37.9,6,50.3,17.9
			s18.5,27.8,18.5,47.5c0,14.1-2.6,25.4-7.8,33.8c-5.2,8.4-13.5,14.9-24.8,19.6c5.4,1.8,10.6,4.3,15.7,7.5
			c5.2,3.3,9.7,7.4,13.7,12.6c4.1,5.2,7.3,11.2,9.7,18.3c2.3,7,3.5,15.4,3.5,25.1c0,12.2-2.1,22.7-6.2,31.8
			c-4.3,9.2-10,16.9-17.1,23c-7.2,6.2-15.6,10.9-25,14.2c-9.5,3.2-19.7,4.8-30.4,4.8c-22,0-40.2-7-54.5-21
			c-14.3-14-23.3-34.5-26.8-62h32.6c3.2,20,8.7,34,16.5,42.2c7.8,8,18.5,12.1,32.2,12.1c6.2,0,12.1-1,17.7-3c5.6-2,10.5-5,14.8-9
			c4.3-4,7.7-8.7,10.4-14.3c2.5-5.7,3.7-11.9,3.7-18.7c0-13.5-4.1-25-12.5-34.4c-8.3-9.4-19.6-14.1-34.1-14.1h-18.5V233h18.5
			c6.7,0,12.4-1.1,17.1-3.3c4.7-2.2,8.5-5.1,11.5-8.6c3-3.5,5-7.5,6.2-11.9c1.3-4.5,1.8-8.9,1.8-13.3c0-12.4-3.4-22.1-10.3-29.2
			c-6.8-7.1-15.9-10.6-27.2-10.6c-7,0-12.8,1.3-17.7,4c-4.8,2.6-8.9,6.2-12.1,10.5c-3.2,4.5-5.7,9.6-7.6,15.5
			c-1.9,5.9-3.2,12.1-4,18.5L182.8,204.8L182.8,204.8z"/>
	</g>
</g>
</svg>
