<?xml version="1.0" encoding="utf-8"?>
<!-- Generator: Adobe Illustrator 18.0.0, SVG Export Plug-In . SVG Version: 6.00 Build 0)  -->
<!DOCTYPE svg PUBLIC "-//W3C//DTD SVG 1.1//EN" "http://www.w3.org/Graphics/SVG/1.1/DTD/svg11.dtd">
<svg version="1.1" id="Capa_1" xmlns="http://www.w3.org/2000/svg" xmlns:xlink="http://www.w3.org/1999/xlink" x="0px" y="0px"
	 viewBox="0 0 512 512" enable-background="new 0 0 512 512" xml:space="preserve">
<g>
	<path fill="#007DB3" d="M256,0C114.6,0,0,114.6,0,256s114.6,256,256,256s256-114.6,256-256S397.4,0,256,0z M256,472
		c-119.3,0-216-96.7-216-216S136.7,40,256,40s216,96.7,216,216S375.3,472,256,472z"/>
	<g>
		<path fill="#007DB3" d="M249.7,201.3H188v-25h19.3c6.9,0,13.4-1.2,19.5-3.6c6.2-2.4,11.4-5.6,15.8-9.8c4.4-4.2,7.9-9.3,10.5-15.2
			c2.7-5.9,4-12.5,4-19.6H284v256h-34.3V201.3z"/>
	</g>
</g>
</svg>
